<?xml version="1.0" encoding="UTF-8" standalone="no"?>
<svg
   xmlns:dc="http://purl.org/dc/elements/1.1/"
   xmlns:cc="http://creativecommons.org/ns#"
   xmlns:rdf="http://www.w3.org/1999/02/22-rdf-syntax-ns#"
   xmlns:svg="http://www.w3.org/2000/svg"
   xmlns="http://www.w3.org/2000/svg"
   xmlns:sodipodi="http://sodipodi.sourceforge.net/DTD/sodipodi-0.dtd"
   xmlns:inkscape="http://www.inkscape.org/namespaces/inkscape"
   version="1.1"
   id="Layer_1"
   x="0px"
   y="0px"
   viewBox="0 0 432 288"
   style="enable-background:new 0 0 432 288;"
   xml:space="preserve"
   sodipodi:docname="UofSC_formal_CEC.svg"
   inkscape:version="1.0.1 (3bc2e813f5, 2020-09-07)"><metadata
   id="metadata145"><rdf:RDF><cc:Work
       rdf:about=""><dc:format>image/svg+xml</dc:format><dc:type
         rdf:resource="http://purl.org/dc/dcmitype/StillImage" /><dc:title></dc:title></cc:Work></rdf:RDF></metadata><defs
   id="defs143" /><sodipodi:namedview
   pagecolor="#ffffff"
   bordercolor="#666666"
   borderopacity="1"
   objecttolerance="10"
   gridtolerance="10"
   guidetolerance="10"
   inkscape:pageopacity="0"
   inkscape:pageshadow="2"
   inkscape:window-width="1920"
   inkscape:window-height="1017"
   id="namedview141"
   showgrid="false"
   inkscape:zoom="2.224537"
   inkscape:cx="216"
   inkscape:cy="147.16377"
   inkscape:window-x="1072"
   inkscape:window-y="520"
   inkscape:window-maximized="1"
   inkscape:current-layer="Layer_1" />
<style
   type="text/css"
   id="style2">
	.st0{fill:#73000A;}
	.st1{fill:#FFFFFF;}
</style>
<g
   id="g32"
   inkscape:export-filename="UofSC_formal_CEC.png"
   inkscape:export-xdpi="300"
   inkscape:export-ydpi="300">
	<path
   d="M247.1,80.3v-7.1c0,0-7.8-9.6-18.8-9.6c-8.4,0-12.2,4.9-12.2,4.9s-3.9-4.9-12.2-4.9c-10.9,0-18.8,9.6-18.8,9.6v7.1   c0,0,8.9-14.5,22-14.5c4.9,0,9.1,4.4,9.1,4.4s4.1-4.4,9.1-4.4C238.1,65.8,247.1,80.3,247.1,80.3z M221.2,91.1L221.2,91.1l2.3-5.4   h-2.2l2.2-5.4h-2.2l1.8-4.3c4.4,1.6,7.5,7.9,7.5,7.9v-5.2c-3.7-5-9.6-3.8-9.6-3.8l-2.2,5.4h2.2l-2.2,5.4h2.2l-2.2,5.4h-0.1v19.2   l3.7,5.9h2.7l-3.6-6.2h5.6v-1.3h-5.8V91.1z M221.1,70.7c13.2,0,17.2,12.6,17.2,12.6v-6.7c-4.3-5.6-8.5-6.7-12.1-6.7   C223.3,69.8,221.1,70.7,221.1,70.7z M242.6,88.3l1.1-2.6h-14.4l1.1,2.6H242.6z M263,100.6v2.4h-5v-5.8h-2.6v5.8h-5v-9.3h-2.6v9.3   h-5.2V90.1h-12.2v26.3h2.6V92.6h7.1v23.7h2.6v-12h5.2v12h2.6v-12h5v12h2.6v-12h5v12h2.6v-15.8H263z M216.1,48.5   c0-1.5,6.5-14.8,17.9-18c0-0.7,0-6.1,0-6.1c-8.5,2.2-17.9,16.5-17.9,22.2c0-5.7-9.3-20.1-17.9-22.2c0,0,0,5.3,0,6.1   C209.6,33.6,216.1,46.9,216.1,48.5z M216.1,55c0,0,7.7-15.6,27.8-15.6v-6.2c-19,0-27.8,19.4-27.8,19.4s-8.7-19.4-27.8-19.4v6.2   C208.4,39.4,216.1,55,216.1,55z M211.2,85.7h2.2l-2.2-5.4h2.2l-2.2-5.4c0,0-6-1.3-9.6,3.8v5.2c0,0,3.1-6.3,7.5-7.9l1.8,4.3h-2.2   l2.2,5.4h-2.2l2.2,5.4h0v17.6H205v1.3h5.6l-3.6,6.2h2.7l3.7-5.9V91.1h-0.1L211.2,85.7z M194.4,50.3c12.6,0,21.6,10.5,21.6,10.5   s9-10.5,21.6-10.5c7.2,0,12,3.1,12,3.1l0-6.9c0,0-5.2-1.6-9.5-1.6c-16.4,0-24.2,14-24.2,14s-7.8-14-24.2-14c-4.3,0-9.5,1.6-9.5,1.6   l0,6.9C182.4,53.5,187.3,50.3,194.4,50.3z M216.1,39.8c0,0,0.1-9.5,8.1-13.3c0-3.1,0-5.4,0-5.4c-7.8,4-8.1,14.4-8.1,14.4   s-0.3-10.4-8.1-14.4c0,0,0,2.3,0,5.4C215.9,30.4,216.1,39.8,216.1,39.8z M189.5,88.3h12.2l1.1-2.6h-14.4L189.5,88.3z M205.9,69.9   c-3.7,0-7.8,1.1-12.1,6.7v6.7c0,0,4-12.6,17.2-12.6C211,70.7,208.8,69.8,205.9,69.9z M201.6,58.9c9.1,0,14.4,6.6,14.4,6.6   s5.4-6.6,14.4-6.6c13.1,0.1,22.8,12,22.8,12v-8.6c0,0-7.8-6.6-20.1-6.6c-11.1,0-17.1,8.2-17.1,8.2s-5.9-8.2-17.1-8.2   c-12.3,0-20.1,6.6-20.1,6.6v8.6C178.9,70.9,188.5,59.1,201.6,58.9z M189.5,103h-5.2v-9.3h-2.6v9.3h-5v-5.8h-2.6v5.8h-5v-2.4h-2.6   v15.8h2.6v-12h5v12h2.6v-12h5v12h2.6v-12h5.2v12h2.6V92.6h7.1v23.7h2.6V90.1h-12.2V103z"
   id="path4" />
	<g
   id="g30">
		<path
   d="M126.3,132.9l0.1-0.9l2.9,0.1l2.6-0.1l0.1,0.9l-1.9,0.3l0,9c0,2.9-1.2,4.9-5.7,6c-4.7,0-6.4-2.4-6.4-6l0-9l-1.9-0.3    l0.1-0.9l3.1,0.1l3.3-0.1l0.1,0.9l-1.8,0.3l0,9.2c0,2.7,1.2,4.3,3.7,4.3c2.3,0,3.6-1.6,3.6-4.4l0-9.1L126.3,132.9z"
   id="path6" />
		<path
   d="M139.1,146.6l1.8,0.3l-0.1,0.9l-2.4-0.1l-2.7,0.1l-0.1-0.9l1.9-0.3l0-13.3l-1.8-0.4l0.1-0.9l2,0.1l2-0.1l7.6,10.3l0.5,1.6    l0-10.7l-1.8-0.3l0.1-0.9l2.4,0.1l2.7-0.1l0.1,0.9l-1.9,0.3l0,14.6h-1.5l-8.4-11.7l-0.4-1.8L139.1,146.6z"
   id="path8" />
		<path
   d="M158.2,147.7l-3.2,0.1l-0.1-0.9l1.9-0.3l0-13.4l-1.9-0.3l0.1-0.9l3.2,0.1l3.2-0.1l0.1,0.9l-1.9,0.3l0,13.4l1.9,0.3    l-0.1,0.9L158.2,147.7z"
   id="path10" />
		<path
   d="M172.4,148.1l-5.7-15l-1.6-0.3l0.1-0.9l3.5,0.1l2.9-0.1l0.1,0.9l-1.8,0.3l3.8,10.7l0.1,1.3l4.3-12.1l-1.9-0.3l0.1-0.9    l2.5,0.1l2.3-0.1l0.1,0.9l-1.6,0.3l-5.5,14.4L172.4,148.1z"
   id="path12" />
		<path
   d="M197.1,132l0.2,4.2h-0.9l-1.3-2.9l-5.6-0.1l0,5.8l2.9-0.1l0.9-2.4h0.9l-0.2,2.9l0.2,3.1h-0.9l-0.9-2.4l-2.9-0.1l0,6.6    l5.9-0.1l1.5-3h1l-0.8,4.3l-9.2-0.1l-3.1,0.1l-0.1-0.9l1.9-0.3l0-13.4l-1.9-0.3l0.1-0.9l3.1,0.1L197.1,132z"
   id="path14" />
		<path
   d="M206,140.6l0,6l1.8,0.3l-0.1,0.9l-3.1-0.1l-3.2,0.1l-0.1-0.9l1.9-0.3l0-13.4l-1.9-0.3l0.1-0.9l3.2,0.1l4.5-0.1    c2.8,0,5.1,1.3,5.1,3.9c0,2.5-2.3,3.8-4.8,4.3l1.9,1l3.6,5.3l1.1,0.3l-0.1,0.9l-2.1-0.1l-1.7,0.1l-4.6-7l-0.3-0.2H206z M206,139.4    h1.5c2.1,0,3.5-1.3,3.5-3.3c0-2-1.3-3-3-3.1l-2,0.2L206,139.4z"
   id="path16" />
		<path
   d="M221.9,145.3c0.7,0.8,1.8,1.5,3.1,1.5c1.8,0,2.8-1.1,2.8-2.7c0-1.3-0.9-2.2-2.2-2.8l-2.7-1.3c-1.7-0.8-3-1.9-3-3.8    c0-2.3,2-3.8,5.6-4.6c1.5,0,3.2,0.5,4.3,1.3v3.2h-1.3l-0.7-2c-0.6-0.6-1.3-1.1-2.7-1.1c-1.7,0-2.7,0.9-2.7,2.2    c0,1.1,0.8,1.8,2,2.4l2.7,1.2c2.1,1,3.3,2.1,3.3,4.2c0,2.3-1.7,4.2-5.9,5.1c-2,0-3.5-0.6-4.7-1.5l-0.5-3.3h1.7L221.9,145.3z"
   id="path18" />
		<path
   d="M237.3,147.7l-3.2,0.1l-0.1-0.9l1.9-0.3l0-13.4l-1.9-0.3l0.1-0.9l3.2,0.1l3.2-0.1l0.1,0.9l-1.9,0.3l0,13.4l1.9,0.3    l-0.1,0.9L237.3,147.7z"
   id="path20" />
		<path
   d="M254.6,147.8l-3.8-0.1l-3.9,0.1l-0.1-0.9l2.6-0.3l0-13.4l-3.1,0l-1.1,3h-1V132l6.6,0.1l6.5-0.1v4.2h-1l-1.1-3l-3.1,0    l0,13.4l2.5,0.3L254.6,147.8z"
   id="path22" />
		<path
   d="M270.1,141.6l0,5l2.5,0.3l-0.1,0.9l-3.8-0.1l-3.9,0.1l-0.1-0.9l2.6-0.3l0-5l-5-8.4l-1.6-0.3l0.1-0.9l3.2,0.1l3.1-0.1    l0.1,0.9l-1.8,0.3l3.8,6.3l0.1,1l3.9-7.3l-1.8-0.3l0.1-0.9l2.6,0.1l2.4-0.1l0.1,0.9l-1.6,0.2L270.1,141.6z"
   id="path24" />
		<path
   d="M303.7,139.6c0,5-2.5,7.6-8.3,8.6c-4.7,0-7.8-3.4-7.8-7.9c0-5,2.5-7.6,8.3-8.6C300.5,131.6,303.7,135,303.7,139.6z     M295.9,146.8c3.3,0,4.7-2.9,4.7-6.5c0-3.3-1.4-7.3-5.3-7.3c-3.3,0-4.7,2.8-4.7,6.5C290.6,142.9,292.1,146.8,295.9,146.8z"
   id="path26" />
		<path
   d="M307,147.8l-0.1-0.9l1.9-0.3l0-13.4l-1.9-0.3l0.1-0.9l3.1,0.1l9.2-0.1l0.2,4.2h-0.9l-1.3-3l-5.6-0.1v6.1l2.9-0.1l0.9-2.4    h0.9l-0.2,2.9l0.2,3.1h-0.9l-0.9-2.4l-2.9-0.1l0,6.2l2.7,0.3l-0.1,0.9l-4.1-0.1L307,147.8z"
   id="path28" />
	</g>
</g>
<g
   id="g62"
   inkscape:export-filename="UofSC_formal_CEC.png"
   inkscape:export-xdpi="300"
   inkscape:export-ydpi="300">
	<path
   class="st0"
   d="M42.4,189.6c1.8,2.1,4.7,3.7,7.9,3.7c4.5,0,7.2-2.7,7.2-6.8c0-3.4-2.2-5.6-5.6-7.1l-6.9-3.2   c-4.4-2-7.7-4.8-7.7-9.8c0-5.8,5-9.8,14.2-11.7c3.8,0,8.1,1.3,11,3.3v8.2h-3.4l-1.7-5.2c-1.5-1.6-3.4-2.9-6.8-2.9   c-4.3,0-6.9,2.3-6.9,5.7c0,2.9,2,4.7,5,6.1l7,3.1c5.3,2.5,8.5,5.4,8.5,10.8c0,5.9-4.3,10.6-15,13c-5,0-8.8-1.5-12-3.9l-1.3-8.4h4.4   L42.4,189.6z"
   id="path34" />
	<path
   class="st0"
   d="M94.6,180.9c0,8.9-5.9,14.3-14.6,15.8c-7.5,0-12.8-6.6-12.8-14.5c0-9,5.9-14.3,14.6-15.9   C89.3,166.3,94.6,172.9,94.6,180.9z M81.7,193.7c3.8,0,6-4.7,6-11c0-8-3.2-13.3-7.4-13.3c-3.9,0-6,4.7-6,11   C74.2,187.8,77.3,193.7,81.7,193.7z"
   id="path36" />
	<path
   class="st0"
   d="M122.8,188.3c0,2.3,0.3,3.3,0.7,4.2h2.6l0.2,2.3l-8.2,1.5l-1.7-4.8l-8.2,5.2c-7.3,0-9-2.4-9-9.1V171l-3.7,0.3   l-0.3-2.5l7.2-1.5l3.4-0.2v20.5c0,2.7,1.1,4,3.8,4c1.5,0,3.5-1.1,5.4-2.4l1.1-0.7V171l-3.2,0.3l-0.3-2.5l6.6-1.5l3.4-0.2V188.3z"
   id="path38" />
	<path
   class="st0"
   d="M156,193l2.9,0.6l-0.3,2.3l-5.7-0.2l-6.8,0.2l-0.3-2.3l3.7-0.6v-33.2l-3.7,0.1l-0.3-2.3l7.4-1.7l3.1-0.2v16   l8.5-5.4c7,0,8.6,2.5,8.6,9.6V193l3.9,0.6l-0.3,2.3l-6.8-0.2l-5.8,0.2l-0.3-2.3l2.6-0.6v-17.7c0-2.7-1.3-3.9-3.4-3.9   c-1.7,0-3.7,1.2-5.6,2.4l-1.5,1V193z"
   id="path40" />
	<g
   id="g58">
		<path
   class="st0"
   d="M225.7,183.4l-1.3,9.2c-3.3,1.5-8.1,3.5-13.6,4.3c-8.7,0-19.3-7.1-19.3-20.4c0-13.1,9.4-20.1,20.7-21.7    c5.8,0,10,2.4,12.7,4.2v8.6h-3.5l-1.8-5.4c-1.5-1.8-3.7-4.1-8.4-4.1c-7.8,0-11.8,6-11.8,16.9c0,9.5,3.7,18.5,12.9,18.5    c3.5,0,5.2-1.9,7-3.5l3-6.5H225.7z"
   id="path42" />
		<path
   class="st0"
   d="M240,166.3c7.6,0,9.8,1.9,9.8,9v14.1c0,2.4,0.3,3.4,0.9,4.3h2.8l0.3,2.3l-8.5,0.8l-1.8-4.9l-6.7,4.9    c-5.1,0-8.7-2.9-8.7-7.5c0-2.2,0.9-3.9,2.2-5.5l12.8-4.2v-4.7c0-3.4-0.6-5-3.1-5c-1.4,0-3,0.5-4.2,1l-0.9,5H229V171L240,166.3z     M243.1,182l-7.3,3c-0.9,0.9-1.2,2.2-1.2,3.5c0,2.9,1.6,3.9,3.1,3.9c1.4,0,2.6-0.8,3.4-1.3l2-1.4V182z"
   id="path44" />
		<path
   class="st0"
   d="M265.2,175.2l6.3-8.6h5.7l-1.6,6.7h-4.1c-1.4,0.4-3.4,2.1-5,3.9l-1,1.1v14.6l6.1,0.6l-0.3,2.5l-8.9-0.2    l-6.8,0.2l-0.3-2.3l3.7-0.6v-22l-3.7,0.3l-0.3-2.3l7.2-1.7l2.6-0.2L265.2,175.2z"
   id="path46" />
		<path
   class="st0"
   d="M303.9,180.9c0,8.9-5.9,14.3-14.6,15.8c-7.5,0-12.8-6.6-12.8-14.5c0-9,5.9-14.3,14.6-15.9    C298.5,166.3,303.9,172.9,303.9,180.9z M290.9,193.7c3.8,0,6-4.7,6-11c0-8-3.2-13.3-7.4-13.3c-3.9,0-6,4.7-6,11    C283.4,187.8,286.5,193.7,290.9,193.7z"
   id="path48" />
		<path
   class="st0"
   d="M311.3,195.7l-6.8,0.2l-0.3-2.3l3.7-0.6v-33.2l-3.7,0.1l-0.3-2.3l7.4-1.7l3.1-0.2V193l3.9,0.6l-0.3,2.3    L311.3,195.7z"
   id="path50" />
		<path
   class="st0"
   d="M328,195.7l-6.8,0.2l-0.3-2.3l3.7-0.6v-22.1l-3.7,0.2l-0.3-2.3l7.4-1.7l3.1-0.2v26l3.9,0.6l-0.3,2.3    L328,195.7z M324.9,156.3l4.7-0.3l1.7,0.3l0.3,3.5l-0.7,3l-4.6,0.3l-1.7-0.3l-0.3-3.5L324.9,156.3z"
   id="path52" />
		<path
   class="st0"
   d="M344.9,195.7l-6.8,0.2l-0.3-2.3l3.7-0.6v-22l-3.8,0.3l-0.3-2.3l7.4-1.7l2.9-0.2l0.2,4.8l8.6-5.5    c7,0,8.7,2.2,8.7,9.1V193l3.9,0.6l-0.3,2.3l-6.8-0.2l-5.9,0.2l-0.3-2.3l2.6-0.6v-17.7c0-2.7-1.2-3.9-3.4-3.9    c-1.9,0-3.7,1.2-5.6,2.4l-1.5,1V193l2.8,0.6l-0.3,2.3L344.9,195.7z"
   id="path54" />
		<path
   class="st0"
   d="M382.2,166.3c7.6,0,9.8,1.9,9.8,9v14.1c0,2.4,0.3,3.4,0.9,4.3h2.8l0.3,2.3l-8.5,0.8l-1.8-4.9l-6.7,4.9    c-5.1,0-8.7-2.9-8.7-7.5c0-2.2,0.9-3.9,2.2-5.5l12.8-4.2v-4.7c0-3.4-0.6-5-3.1-5c-1.4,0-3,0.5-4.2,1l-0.9,5h-5.9V171L382.2,166.3z     M385.4,182l-7.3,3c-0.9,0.9-1.2,2.2-1.2,3.5c0,2.9,1.6,3.9,3.1,3.9c1.4,0,2.6-0.8,3.4-1.3l2-1.4V182z"
   id="path56" />
	</g>
	<path
   class="st0"
   d="M143.9,191.1c-1.2,0.6-2.3,0.9-3.6,0.9c-2.2,0-3-1.7-3-3.5v-18.8h6.6V167h-6.7v-7h-2l-4.4,3.9v2.7h-2.6   l-2.1,2.2v1h4.6v19.3c0,5.6,2.3,7.6,8.1,7.6l4.7-2.6L143.9,191.1z"
   id="path60" />
</g>
<g
   id="g66"
   inkscape:export-filename="UofSC_formal_CEC.png"
   inkscape:export-xdpi="300"
   inkscape:export-ydpi="300">
	<path
   d="M268.7,116.2l0.5,0v-2.2l-0.5,0l-0.2,0.6h-0.2v-0.8l1.3,0l1.2,0v0.8h-0.2l-0.2-0.6l-0.5,0v2.2l0.4,0l0,0.2l-0.7,0l-0.8,0   L268.7,116.2z M271,116.2l0.3,0v-2.2l-0.3,0l0-0.2l0.4,0l0.7,0l0.8,1.9v0.3l0.9-2.2l0.6,0l0.5,0l0,0.2l-0.3,0v2.2l0.3,0l0,0.2   l-0.6,0l-0.6,0l0-0.2l0.3,0v-1.8l0.1-0.5l-1,2.5h-0.4l-0.8-2l-0.1-0.5v2.2l0.3,0l0,0.2l-0.5,0l-0.5,0L271,116.2z"
   id="path64" />
</g>
<g
   id="g72"
   inkscape:export-filename="UofSC_formal_CEC.png"
   inkscape:export-xdpi="300"
   inkscape:export-ydpi="300">
	<line
   class="st1"
   x1="166.8"
   y1="214.1"
   x2="265.7"
   y2="214.1"
   id="line68" />
	<rect
   x="166.8"
   y="213.2"
   width="98.9"
   height="1.8"
   id="rect70" />
</g>
<g
   id="g138"
   inkscape:export-filename="UofSC_formal_CEC.png"
   inkscape:export-xdpi="300"
   inkscape:export-ydpi="300">
	<path
   d="M106.8,239.5c0-4.7,3.1-6.9,8.1-7.7c2,0,3.6,0.7,4.7,1.3v3.4h-1.4l-0.6-2c-0.5-0.7-1.4-1.5-3.1-1.5c-2.5,0-4.3,2.1-4.3,5.8   c0,3.4,1.7,6.3,4.5,6.3c1.3,0,2.1-0.6,2.8-1.3l1-2.3h1.3l-0.4,3.6c-1.2,0.5-3,1.1-5.2,1.4C110.3,246.5,106.8,244.1,106.8,239.5z"
   id="path74" />
	<path
   d="M121.2,241.6c0-3.3,2.3-4.7,5.3-5.3c2.6,0,4.5,1.9,4.5,4.8c0,3.3-2.4,4.7-5.3,5.3C123.1,246.5,121.2,244.5,121.2,241.6z    M128,242c0-3.1-1-4.5-2.1-4.5c-1,0-1.7,1-1.7,3.3c0,3,1,4.5,2.1,4.5C127.3,245.3,128,244.3,128,242z"
   id="path76" />
	<path
   d="M132.1,245.3l1.2-0.2v-11.6l-1.2,0l-0.1-1l2.8-0.6l1.3-0.1V245l1.2,0.2l-0.1,0.9l-2.5-0.1l-2.5,0.1L132.1,245.3z"
   id="path78" />
	<path
   d="M138.6,245.3l1.2-0.2v-11.6l-1.2,0l-0.1-1l2.8-0.6l1.3-0.1V245l1.2,0.2l-0.1,0.9l-2.5-0.1l-2.5,0.1L138.6,245.3z"
   id="path80" />
	<path
   d="M153.6,241.2h-5.8c0.1,1.9,1.1,3.2,2.9,3.2c0.9,0,1.9-0.4,2.5-0.8l0.4,0.9c-1.1,0.9-2.2,1.4-3.8,1.9   c-2.8,0-4.9-1.9-4.9-4.8c0-2.4,1.1-4.4,4.8-5.4c2.8,0,3.9,1.7,3.9,3.8V241.2z M150.8,240.1c0-1.5-0.3-2.5-1.4-2.5   c-0.9,0-1.5,0.9-1.6,2.7L150.8,240.1z"
   id="path82" />
	<path
   d="M154.8,248.6v-0.5l2.4-1.5c-1.4-0.4-1.9-1.2-1.9-2.2V244l2.1-1.3c-1.3-0.5-2.1-1.6-2.1-2.9c0-1.9,1.6-2.9,4.4-3.6   c1.9,0,2.8,0.7,3.5,1.6l0.9-1.6h1.4v2.1h-1.6l-0.4,0.2c0.1,0.3,0.1,0.5,0.1,0.8c0,2-1.5,2.9-4.3,3.7c-0.4,0-0.8,0-1.1-0.1l-0.7,0.8   c0,0.5,0.4,0.7,1,0.7h3.7c1.7,0,2.7,1,2.7,2.3c0,1.9-2.4,3.2-5.6,4.3C156.8,251.1,154.8,250.4,154.8,248.6z M162.5,247.8   c0-0.6-0.5-1.1-1.5-1.1h-2.9c-0.6,0.6-0.7,0.9-0.7,1.3c0,0.8,0.7,1.6,2.5,1.6C161.6,249.6,162.5,248.7,162.5,247.8z M161,240   c0-1.4-0.5-2.7-1.7-2.7c-0.9,0-1.4,0.9-1.4,2.1c0,1.4,0.5,2.6,1.7,2.6C160.6,242,161,241.2,161,240z"
   id="path84" />
	<path
   d="M174.9,241.2h-5.8c0.1,1.9,1.1,3.2,2.9,3.2c0.9,0,1.9-0.4,2.5-0.8l0.4,0.9c-1.1,0.9-2.2,1.4-3.8,1.9   c-2.8,0-4.9-1.9-4.9-4.8c0-2.4,1.1-4.4,4.8-5.4c2.8,0,3.9,1.7,3.9,3.8V241.2z M172.1,240.1c0-1.5-0.3-2.5-1.4-2.5   c-0.9,0-1.5,0.9-1.6,2.7L172.1,240.1z"
   id="path86" />
	<path
   d="M181.6,241.6c0-3.3,2.3-4.7,5.3-5.3c2.6,0,4.5,1.9,4.5,4.8c0,3.3-2.4,4.7-5.3,5.3C183.5,246.5,181.6,244.5,181.6,241.6z    M188.4,242c0-3.1-1-4.5-2.1-4.5c-1,0-1.7,1-1.7,3.3c0,3,1,4.5,2.1,4.5C187.7,245.3,188.4,244.3,188.4,242z"
   id="path88" />
	<path
   d="M192.9,245.3l1.2-0.2v-6.9h-1.6v-0.4l0.7-0.8h0.9v-0.2c0-1.1,0.4-1.9,1.2-2.7l2.1-2h2.8v2h-2.6l-0.3,0.5   c-0.3,0.4-0.3,1.1-0.3,2v0.5h2.6v1.2h-2.6v6.9l2.1,0.2l-0.1,1l-3.7-0.1l-2.1,0.1L192.9,245.3z"
   id="path90" />
	<path
   d="M205.8,245.3l1.6-0.3v-11.7l-1.6-0.3l0.1-0.9l2.8,0.1l8.4-0.1l0.2,3.8h-1l-1.2-2.6l-4.7-0.1v4.9l2.3-0.1l0.8-2.1h1   l-0.2,2.7l0.2,2.8h-1l-0.8-2.1l-2.3-0.1v5.6l4.9-0.1l1.4-2.7h1.1l-0.7,3.9l-8.4-0.1l-2.8,0.1L205.8,245.3z"
   id="path92" />
	<path
   d="M219.1,245.3l1.2-0.2v-6.9l-1.2,0.1l-0.1-1l2.9-0.6l1.2-0.1l0,1.7l3-1.9c2.3,0,3.1,0.7,3.1,3.1v5.6l1.2,0.2l-0.1,0.9   l-2.5-0.1l-2.2,0.1l-0.1-0.9l0.8-0.2v-5.5c0-0.8-0.4-1.2-1.1-1.2c-0.6,0-1.2,0.4-1.7,0.8l-0.5,0.3v5.6l0.9,0.2l-0.1,0.9l-2.1-0.1   l-2.5,0.1L219.1,245.3z"
   id="path94" />
	<path
   d="M231.3,248.6v-0.5l2.4-1.5c-1.4-0.4-1.9-1.2-1.9-2.2V244l2.1-1.3c-1.3-0.5-2.1-1.6-2.1-2.9c0-1.9,1.6-2.9,4.4-3.6   c1.9,0,2.8,0.7,3.5,1.6l0.9-1.6h1.4v2.1h-1.6l-0.4,0.2c0.1,0.3,0.1,0.5,0.1,0.8c0,2-1.5,2.9-4.3,3.7c-0.4,0-0.8,0-1.1-0.1l-0.7,0.8   c0,0.5,0.4,0.7,1,0.7h3.7c1.7,0,2.7,1,2.7,2.3c0,1.9-2.4,3.2-5.6,4.3C233.2,251.1,231.3,250.4,231.3,248.6z M238.9,247.8   c0-0.6-0.5-1.1-1.5-1.1h-2.9c-0.6,0.6-0.7,0.9-0.7,1.3c0,0.8,0.7,1.6,2.5,1.6C238,249.6,238.9,248.7,238.9,247.8z M237.4,240   c0-1.4-0.5-2.7-1.7-2.7c-0.9,0-1.4,0.9-1.4,2.1c0,1.4,0.5,2.6,1.7,2.6C237,242,237.4,241.2,237.4,240z"
   id="path96" />
	<path
   d="M242.9,245.3l1.2-0.2v-7l-1.2,0.1l-0.1-0.9l2.8-0.6l1.2-0.1v8.5l1.2,0.2l-0.1,0.9l-2.5-0.1l-2.5,0.1L242.9,245.3z    M244,234.8l-0.1-1.3l0.2-1.1l1.9-0.1l0.7,0.1l0.1,1.4l-0.3,1.1l-1.9,0.1L244,234.8z"
   id="path98" />
	<path
   d="M249.4,245.3l1.2-0.2v-6.9l-1.2,0.1l-0.1-1l2.9-0.6l1.2-0.1l0,1.7l3-1.9c2.3,0,3.1,0.7,3.1,3.1v5.6l1.2,0.2l-0.1,0.9   l-2.5-0.1l-2.2,0.1l-0.1-0.9l0.8-0.2v-5.5c0-0.8-0.4-1.2-1.1-1.2c-0.6,0-1.2,0.4-1.7,0.8l-0.5,0.3v5.6l0.9,0.2l-0.1,0.9l-2.1-0.1   l-2.5,0.1L249.4,245.3z"
   id="path100" />
	<path
   d="M270.5,241.2h-5.8c0.1,1.9,1.1,3.2,2.9,3.2c0.9,0,1.9-0.4,2.5-0.8l0.4,0.9c-1.1,0.9-2.2,1.4-3.8,1.9   c-2.8,0-4.9-1.9-4.9-4.8c0-2.4,1.1-4.4,4.8-5.4c2.8,0,3.9,1.7,3.9,3.8V241.2z M267.7,240.1c0-1.5-0.3-2.5-1.4-2.5   c-0.9,0-1.5,0.9-1.6,2.7L267.7,240.1z"
   id="path102" />
	<path
   d="M280.5,241.2h-5.8c0.1,1.9,1.1,3.2,2.9,3.2c0.9,0,1.9-0.4,2.5-0.8l0.4,0.9c-1.1,0.9-2.2,1.4-3.8,1.9   c-2.8,0-4.9-1.9-4.9-4.8c0-2.4,1.1-4.4,4.8-5.4c2.8,0,3.9,1.7,3.9,3.8V241.2z M277.7,240.1c0-1.5-0.3-2.5-1.4-2.5   c-0.9,0-1.5,0.9-1.6,2.7L277.7,240.1z"
   id="path104" />
	<path
   d="M282,245.3l1.2-0.2v-6.9l-1.2,0.1l-0.1-1l2.6-0.6l1.1-0.1l0.2,3.1l2.1-3.2h1.8v2.7h-2c-0.5,0.2-1,0.7-1.5,1.3l-0.3,0.3v4.2   l2.1,0.2l-0.1,1l-3.4-0.1l-2.5,0.1L282,245.3z"
   id="path106" />
	<path
   d="M290.9,245.3l1.2-0.2v-7l-1.2,0.1l-0.1-0.9l2.8-0.6l1.2-0.1v8.5l1.2,0.2l-0.1,0.9l-2.5-0.1l-2.5,0.1L290.9,245.3z    M292.1,234.8l-0.1-1.3l0.2-1.1l1.9-0.1l0.7,0.1l0.1,1.4l-0.3,1.1l-1.9,0.1L292.1,234.8z"
   id="path108" />
	<path
   d="M297.4,245.3l1.2-0.2v-6.9l-1.2,0.1l-0.1-1l2.9-0.6l1.2-0.1l0,1.7l3-1.9c2.3,0,3.1,0.7,3.1,3.1v5.6l1.2,0.2l-0.1,0.9   l-2.5-0.1l-2.2,0.1l-0.1-0.9l0.8-0.2v-5.5c0-0.8-0.4-1.2-1.1-1.2c-0.6,0-1.2,0.4-1.7,0.8l-0.5,0.3v5.6l0.9,0.2l-0.1,0.9l-2.1-0.1   l-2.5,0.1L297.4,245.3z"
   id="path110" />
	<path
   d="M309.6,248.6v-0.5l2.4-1.5c-1.4-0.4-1.9-1.2-1.9-2.2V244l2.1-1.3c-1.3-0.5-2.1-1.6-2.1-2.9c0-1.9,1.6-2.9,4.4-3.6   c1.9,0,2.8,0.7,3.5,1.6l0.9-1.6h1.4v2.1h-1.6l-0.4,0.2c0.1,0.3,0.1,0.5,0.1,0.8c0,2-1.5,2.9-4.3,3.7c-0.4,0-0.8,0-1.1-0.1l-0.7,0.8   c0,0.5,0.4,0.7,1,0.7h3.7c1.7,0,2.7,1,2.7,2.3c0,1.9-2.4,3.2-5.6,4.3C311.6,251.1,309.6,250.4,309.6,248.6z M317.3,247.8   c0-0.6-0.5-1.1-1.5-1.1h-2.9c-0.6,0.6-0.7,0.9-0.7,1.3c0,0.8,0.7,1.6,2.5,1.6C316.4,249.6,317.3,248.7,317.3,247.8z M315.8,240   c0-1.4-0.5-2.7-1.7-2.7c-0.9,0-1.4,0.9-1.4,2.1c0,1.4,0.5,2.6,1.7,2.6C315.4,242,315.8,241.2,315.8,240z"
   id="path112" />
	<path
   d="M143.6,264.8c0-0.9,0.4-1.5,0.9-2l4.4-1.4v-1.1c0-1.2-0.3-1.6-1-1.6c-0.4,0-0.9,0.1-1.2,0.3l-0.3,1.8h-2.5V259l4.2-1.7   c2.8,0,3.7,0.7,3.7,3.1v3.9c0,0.8,0.1,1.2,0.3,1.5h1l0.1,0.9l-3.5,0.7l-0.6-1.6l-2.3,1.7C144.9,267.5,143.6,266.4,143.6,264.8z    M148.4,265.4l0.5-0.4v-2.8l-2.1,0.9c-0.3,0.3-0.5,0.9-0.5,1.3c0,1,0.5,1.4,1,1.4C147.8,265.8,148.2,265.5,148.4,265.4z"
   id="path114" />
	<path
   d="M154.2,266.3l1.2-0.2v-6.9l-1.2,0.1l-0.1-1l2.9-0.6l1.2-0.1l0,1.7l3-1.9c2.3,0,3.1,0.7,3.1,3.1v5.6l1.2,0.2l-0.1,0.9   l-2.5-0.1l-2.2,0.1l-0.1-0.9l0.8-0.2v-5.5c0-0.8-0.4-1.2-1.1-1.2c-0.6,0-1.2,0.4-1.7,0.8l-0.5,0.3v5.6l0.9,0.2l-0.1,0.9l-2.1-0.1   l-2.5,0.1L154.2,266.3z"
   id="path116" />
	<path
   d="M166.7,262.7c0-3.3,2-4.9,4.8-5.4c0.4,0,1.4,0.3,1.7,0.5v-3.3l-1.2,0l-0.1-0.9l2.6-0.6l1.4-0.1v11.6c0,0.8,0.1,1,0.3,1.3   h0.9l0.1,1l-3.3,0.6l-0.6-1.7l-2.4,1.8C168.3,267.5,166.7,265.5,166.7,262.7z M172.8,264.8l0.4-0.3v-5.2c-0.3-0.4-0.8-0.6-1.5-0.6   c-1.3,0-2.1,1.3-2.1,3.5c0,2,0.8,3.2,1.8,3.2C171.9,265.4,172.4,265.2,172.8,264.8z"
   id="path118" />
	<path
   d="M183.4,260.5c0-4.7,3.1-6.9,8.1-7.7c2,0,3.6,0.7,4.7,1.3v3.4h-1.4l-0.6-2c-0.5-0.7-1.4-1.5-3.1-1.5c-2.5,0-4.3,2.1-4.3,5.8   c0,3.4,1.7,6.3,4.5,6.3c1.3,0,2.1-0.6,2.8-1.3l1-2.3h1.3l-0.4,3.6c-1.2,0.5-3,1.1-5.2,1.4C187,267.5,183.4,265.1,183.4,260.5z"
   id="path120" />
	<path
   d="M197.7,262.6c0-3.3,2.3-4.7,5.3-5.3c2.6,0,4.5,1.9,4.5,4.8c0,3.3-2.4,4.7-5.3,5.3C199.6,267.5,197.7,265.5,197.7,262.6z    M204.5,263c0-3.1-1-4.5-2.1-4.5c-1,0-1.7,1-1.7,3.3c0,3,1,4.5,2.1,4.5C203.8,266.3,204.5,265.3,204.5,263z"
   id="path122" />
	<path
   d="M209,266.3l1.2-0.2v-6.9l-1.2,0.1l-0.1-1l2.7-0.6l1.2-0.1l0.1,1.6l2.7-1.9c1.9,0,2.9,0.5,3.1,1.9l2.9-1.9   c2.4,0,3.2,0.7,3.2,3.2v5.5l1.2,0.2l-0.1,0.9l-2.4-0.1l-2.2,0.1l-0.1-0.9l0.8-0.2v-5.5c0-0.8-0.3-1.2-0.9-1.2   c-0.5,0-1.1,0.3-1.7,0.7l-0.4,0.3v5.6l0.7,0.2l-0.1,0.9l-2.1-0.1l-2,0.1l-0.1-0.9l0.7-0.2v-5.5c0-0.8-0.4-1.2-0.9-1.2   c-0.5,0-1.1,0.3-1.7,0.7l-0.5,0.3v5.6l0.8,0.2l-0.1,0.9l-2.2-0.1l-2.3,0.1L209,266.3z"
   id="path124" />
	<path
   d="M227,270.9l1.2-0.2V259l-1.2,0.1l-0.1-0.9l2.7-0.5l1.2-0.1l0.1,1.6l2.6-1.9c2,0,3.9,1.7,3.9,4.5c0,3.4-1.8,5.2-5.3,5.7   c-0.4,0-0.9-0.1-1.2-0.3v3.4l1.9,0.2l-0.1,0.9l-3.2-0.1l-2.4,0.1L227,270.9z M234.5,262.7c0-2.4-0.8-3.3-1.7-3.3   c-0.4,0-0.9,0.3-1.4,0.7l-0.4,0.3v5.2c0.4,0.5,0.9,0.8,1.6,0.8C233.7,266.3,234.5,265,234.5,262.7z"
   id="path126" />
	<path
   d="M239.7,264.4v-5.3l-1.1,0.1l-0.1-1l2.6-0.6l1.5-0.1v6.6c0,0.9,0.3,1.3,1.2,1.3c0.4,0,0.9-0.3,1.5-0.6l0.4-0.2v-5.4l-1,0.1   l-0.1-1l2.5-0.6l1.5-0.1v7c0,0.8,0.1,1.1,0.3,1.4h0.8l0.1,0.9l-3.3,0.6l-0.6-1.8l-2.8,1.8C240.5,267.5,239.7,266.8,239.7,264.4z"
   id="path128" />
	<path
   d="M252.1,264.3v-5.3h-1.8v-0.4l0.8-0.8h1.1v-1.4l1.8-1.5h0.9v2.9h2.7v1.1h-2.7v5.4c0,0.7,0.5,1.2,1,1.2   c0.5,0,0.9-0.1,1.6-0.5l0.4,0.9l-2.7,1.4C253.2,267.5,252.1,266.4,252.1,264.3z"
   id="path130" />
	<path
   d="M259,266.3l1.2-0.2v-7l-1.2,0.1l-0.1-0.9l2.8-0.6l1.2-0.1v8.5l1.2,0.2l-0.1,0.9l-2.5-0.1l-2.5,0.1L259,266.3z M260.1,255.8   l-0.1-1.3l0.2-1.1l1.9-0.1l0.7,0.1l0.1,1.4l-0.3,1.1l-1.9,0.1L260.1,255.8z"
   id="path132" />
	<path
   d="M265.5,266.3l1.2-0.2v-6.9l-1.2,0.1l-0.1-1l2.9-0.6l1.2-0.1l0,1.7l3-1.9c2.3,0,3.1,0.7,3.1,3.1v5.6l1.2,0.2l-0.1,0.9   l-2.5-0.1l-2.2,0.1l-0.1-0.9l0.8-0.2v-5.5c0-0.8-0.4-1.2-1.1-1.2c-0.6,0-1.2,0.4-1.7,0.8l-0.5,0.3v5.6l0.9,0.2l-0.1,0.9l-2.1-0.1   l-2.5,0.1L265.5,266.3z"
   id="path134" />
	<path
   d="M277.6,269.6v-0.5l2.4-1.5c-1.4-0.4-1.9-1.2-1.9-2.2V265l2.1-1.3c-1.3-0.5-2.1-1.6-2.1-2.9c0-1.9,1.6-2.9,4.4-3.6   c1.9,0,2.8,0.7,3.5,1.6l0.9-1.6h1.4v2.1h-1.6l-0.4,0.2c0.1,0.3,0.1,0.5,0.1,0.8c0,2-1.5,2.9-4.3,3.7c-0.4,0-0.8,0-1.1-0.1l-0.7,0.8   c0,0.5,0.4,0.7,1,0.7h3.7c1.7,0,2.7,1,2.7,2.3c0,1.9-2.4,3.2-5.6,4.3C279.6,272.1,277.6,271.4,277.6,269.6z M285.3,268.8   c0-0.6-0.5-1.1-1.5-1.1h-2.9c-0.6,0.6-0.7,0.9-0.7,1.3c0,0.8,0.7,1.6,2.5,1.6C284.4,270.6,285.3,269.7,285.3,268.8z M283.8,261   c0-1.4-0.5-2.7-1.7-2.7c-0.9,0-1.4,0.9-1.4,2.1c0,1.4,0.5,2.6,1.7,2.6C283.4,263,283.8,262.2,283.8,261z"
   id="path136" />
</g>
</svg>
