<svg id="Layer_1" data-name="Layer 1" xmlns="http://www.w3.org/2000/svg" viewBox="0 0 800 425"><defs><style>.cls-1{fill:#fff;}</style></defs><title>grid_uofsc_formal_black_on_garnet</title><rect width="800" height="425"/><path class="cls-1" d="M454,162.44V150.05s-13.59-16.61-32.61-16.61c-14.55,0-21.25,8.55-21.25,8.55s-6.71-8.55-21.26-8.55c-19,0-32.61,16.61-32.61,16.61v12.39s15.51-25.21,38.14-25.21c8.55,0,15.73,7.65,15.73,7.65s7.18-7.65,15.73-7.65C438.46,137.23,454,162.44,454,162.44Zm-44.86,18.74h0l3.87-9.39h-3.87L413,162.4h-3.87l3.11-7.54c7.72,2.85,13.1,13.77,13.1,13.77v-9C419,150.82,408.63,153,408.63,153l-3.87,9.39h3.87l-3.87,9.39h3.87l-3.87,9.39h-.1v33.31l6.44,10.31h4.7L409.47,214h9.8v-2.32H409.11Zm-.22-35.44c22.91,0,29.92,21.84,29.92,21.84V155.92c-7.51-9.67-14.68-11.58-21.06-11.67A25.08,25.08,0,0,0,408.89,145.74Zm37.36,30.52,1.92-4.45H423.12l1.92,4.45Zm35.31,21.3v4.23H472.9V191.64h-4.46v10.15h-8.67V185.62h-4.45v16.17h-9.07V179.33H425V225h4.46V183.79H441.8V225h4.45V204.11h9.07V225h4.45V204.11h8.67V225h4.46V204.11h8.66V225H486v-27.4Zm-81.45-90.49c0-2.69,11.29-25.73,31-31.31V65.2c-14.8,3.77-31,28.73-31,38.6,0-9.87-16.22-34.83-31-38.6V75.76C388.82,81.34,400.11,104.38,400.11,107.07Zm0,11.36S413.4,91.3,448.3,91.3V80.58c-33,0-48.19,33.67-48.19,33.67s-15.2-33.67-48.2-33.67V91.3C386.82,91.3,400.11,118.43,400.11,118.43Zm-8.53,53.36h3.87l-3.87-9.39h3.87L391.58,153s-10.34-2.19-16.72,6.57v9s5.38-10.92,13.09-13.77l3.11,7.54h-3.87l3.87,9.39h-3.87l3.87,9.39h0v30.53H381V214h9.8l-6.33,10.77h4.7l6.44-10.31V181.18h-.11Zm-29-61.46c21.94,0,37.57,18.25,37.57,18.25s15.63-18.25,37.56-18.25a41.62,41.62,0,0,1,20.88,5.42l0-12s-9-2.82-16.46-2.82c-28.4,0-42,24.38-42,24.38s-13.61-24.38-42-24.38c-7.47,0-16.47,2.82-16.47,2.82l0,12A41.61,41.61,0,0,1,362.54,110.33Zm37.57-18.27s.24-16.42,14-23.14c.07-5.36.07-9.35.07-9.35-13.63,6.89-14.1,25-14.1,25s-.47-18.07-14.11-25c0,0,0,4,.08,9.35C399.86,75.64,400.11,92.06,400.11,92.06ZM354,176.26h21.2l1.92-4.45H352Zm28.49-32c-6.38.09-13.55,2-21,11.67v11.66s7-21.84,29.91-21.84A25,25,0,0,0,382.46,144.25Zm-7.41-19c15.77,0,25.06,11.49,25.06,11.49s9.29-11.54,25.05-11.49c22.8.19,39.53,20.79,39.53,20.79V131.12a57.8,57.8,0,0,0-34.94-11.49,38.44,38.44,0,0,0-29.64,14.2,38.47,38.47,0,0,0-29.65-14.2,57.75,57.75,0,0,0-34.93,11.49v14.95S352.25,125.47,375.05,125.28ZM354,201.79H344.9V185.62h-4.46v16.17h-8.67V191.64h-4.45v10.15h-8.67v-4.23H314.2V225h4.45V204.11h8.67V225h4.45V204.11h8.67V225h4.46V204.11H354V225h4.46V183.79h12.34V225h4.45V179.33H354Z"/><path class="cls-1" d="M244.28,253.74l.2-1.56,5,.12,4.53-.12.2,1.56-3.24.51v15.62c0,5.11-2.07,8.54-9.84,10.38-8.2,0-11.09-4.18-11.09-10.38V254.25l-3.32-.51.2-1.56,5.35.12,5.74-.12.19,1.56-3.08.51v16c0,4.76,2,7.53,6.36,7.53,4,0,6.21-2.77,6.21-7.65V254.25Z"/><path class="cls-1" d="M266.45,277.52l3.12.5-.16,1.57-4.21-.12-4.61.12L260.4,278l3.31-.5V254.44l-3.2-.7.2-1.56,3.43.12,3.48-.12,13.15,17.88.94,2.77V254.25l-3.12-.51.15-1.56,4.22.12,4.61-.12.19,1.56-3.32.51v25.38h-2.65l-14.56-20.27-.78-3.08Z"/><path class="cls-1" d="M299.71,279.47l-5.59.12-.19-1.6,3.32-.51V254.25l-3.32-.51.19-1.56,5.59.12,5.58-.12.19,1.56-3.31.51v23.23l3.31.51-.19,1.6Z"/><path class="cls-1" d="M324.22,280.17l-9.88-26-2.85-.47.2-1.56,6.05.12,5-.12.19,1.56-3.12.51,6.68,18.62.11,2.34,7.42-21-3.24-.51.2-1.56,4.41.12,4.06-.12.19,1.56-2.77.47-9.53,25Z"/><path class="cls-1" d="M367.19,252.18l.39,7.22H366l-2.26-5.07-9.8-.12v10.07l5-.15,1.56-4.14h1.64l-.39,5.07.39,5.39h-1.64L359,266.31l-5-.15v11.4l10.23-.12,2.62-5.27h1.75l-1.32,7.42-15.93-.12-5.39.12-.2-1.57,3.32-.5V254.25l-3.32-.51.2-1.56,5.39.12Z"/><path class="cls-1" d="M382.61,267.05v10.47l3.16.5-.19,1.57-5.43-.12-5.58.12-.2-1.57,3.32-.5V254.25l-3.32-.51.2-1.56,5.58.12,7.81-.12c4.92,0,8.78,2.22,8.78,6.79,0,4.34-4,6.52-8.27,7.5l3.35,1.76,6.33,9.25,2,.58-.16,1.53-3.67-.12-2.92.12-8-12.11-.47-.43Zm0-2h2.66c3.59,0,6.09-2.34,6.09-5.81s-2.31-5.27-5.27-5.31l-3.48.27Z"/><path class="cls-1" d="M410.19,275.29a7.32,7.32,0,0,0,5.39,2.54c3.05,0,4.92-1.87,4.92-4.61,0-2.3-1.48-3.78-3.83-4.84L412,266.2c-3-1.37-5.23-3.25-5.23-6.68,0-4,3.43-6.68,9.68-8a13.87,13.87,0,0,1,7.54,2.26v5.62h-2.31l-1.13-3.55a5.82,5.82,0,0,0-4.61-2c-3,0-4.68,1.6-4.68,3.9,0,1.95,1.37,3.2,3.4,4.14l4.76,2.15c3.63,1.72,5.82,3.67,5.78,7.34,0,4-3,7.22-10.23,8.86a13.38,13.38,0,0,1-8.2-2.65l-.86-5.74h3Z"/><path class="cls-1" d="M437,279.47l-5.58.12-.2-1.6,3.32-.51V254.25l-3.32-.51.2-1.56,5.58.12,5.58-.12.2,1.56-3.32.51v23.23l3.32.51-.2,1.6Z"/><path class="cls-1" d="M467,279.59l-6.6-.12-6.75.12-.2-1.57,4.49-.5V254.25l-5.39.08-1.87,5.19H449v-7.34l11.52.12,11.36-.12v7.34h-1.76l-1.83-5.19-5.39-.08v23.27l4.33.5Z"/><path class="cls-1" d="M494,268.89l0,8.63,4.37.5-.19,1.57-6.64-.12-6.79.12-.2-1.57,4.53-.5v-8.75l-8.63-14.6-2.85-.47.2-1.52,5.54.12,5.43-.12.19,1.52-3.12.51,6.52,11,.19,1.68,6.8-12.69-3.2-.51.19-1.52,4.49.12,4.18-.12.19,1.52-2.85.43Z"/><path class="cls-1" d="M552.23,265.26c0,8.63-4.33,13.23-14.44,15-8.16,0-13.59-5.86-13.59-13.74,0-8.63,4.34-13.24,14.45-15C546.81,251.52,552.23,257.37,552.23,265.26Zm-13.47,12.65c5.67,0,8.09-5,8.09-11.36,0-5.74-2.5-12.69-9.14-12.69-5.66,0-8.12,4.92-8.12,11.32C529.59,271.08,532.17,277.91,538.76,277.91Z"/><path class="cls-1" d="M558.08,279.59l-.19-1.57,3.32-.5V254.25l-3.32-.51.19-1.56,5.39.12,15.93-.12.39,7.34h-1.6l-2.26-5.19-9.8-.12v10.62l5-.16,1.56-4.1h1.64l-.39,5.08.39,5.39h-1.64l-1.56-4.14-5-.16v10.78l4.68.5-.19,1.57-7.15-.12Z"/><path class="cls-1" d="M98.45,352.2a18.61,18.61,0,0,0,13.71,6.46c7.76,0,12.53-4.77,12.53-11.73,0-5.86-3.78-9.64-9.74-12.32l-12-5.57c-7.65-3.48-13.32-8.25-13.32-17,0-10.14,8.75-17,24.65-20.37a35.37,35.37,0,0,1,19.18,5.76v14.31h-5.86l-2.88-9A14.83,14.83,0,0,0,113,297.64c-7.55,0-11.93,4.07-11.93,9.94,0,5,3.48,8.15,8.65,10.53l12.12,5.47c9.25,4.37,14.81,9.34,14.71,18.68,0,10.24-7.55,18.39-26,22.56a34,34,0,0,1-20.87-6.76l-2.18-14.61h7.65Z"/><path class="cls-1" d="M189.26,337c0,15.5-10.24,24.83-25.34,27.51-13,0-22.27-11.41-22.27-25.23,0-15.7,10.24-24.83,25.35-27.62C180,311.67,189.26,323.09,189.26,337ZM166.7,359.26c6.66,0,10.34-8.24,10.34-19.17,0-13.82-5.57-23.15-12.92-23.15-6.76,0-10.34,8.24-10.34,19.17C153.78,349,159.15,359.26,166.7,359.26Z"/><path class="cls-1" d="M238.19,349.91c0,4.08.5,5.67,1.29,7.26h4.57l.4,4-14.31,2.69-2.88-8.35-14.21,9c-12.63,0-15.61-4.17-15.61-15.8v-28.9l-6.36.5-.49-4.37L203,313.26l6-.39v35.65c0,4.77,2,7,6.56,7,2.68,0,6.06-2,9.34-4.17l1.89-1.3V319.82l-5.56.5-.5-4.37,11.53-2.69,6-.39Z"/><path class="cls-1" d="M295.76,358.06l5,1.1-.5,4-9.94-.3-11.83.3-.49-4,6.36-1.1V300.44l-6.46.2-.5-4,12.92-3,5.47-.4v27.82l14.8-9.44c12.23,0,15,4.28,15,16.7v29.69l6.86,1.1-.5,4-11.83-.3-10,.3-.5-4,4.47-1.1V327.38c0-4.67-2.18-6.76-5.86-6.76-2.88,0-6.36,2.09-9.74,4.17l-2.68,1.69Z"/><path class="cls-1" d="M416.76,341.47l-2.28,15.9c-5.67,2.58-14,6.06-23.57,7.45-15.1,0-33.51-12.32-33.51-35.38,0-22.72,16.32-34.92,36-37.76,10,0,17.4,4.17,22.07,7.25v15h-6.16l-3.18-9.44c-2.59-3.18-6.37-7.06-14.52-7.06-13.62,0-20.5,10.44-20.5,29.32,0,16.5,6.48,32.1,22.39,32.1,6.16,0,9.05-3.28,12.13-6.06l5.17-11.33Z"/><path class="cls-1" d="M441.67,311.67c13.22,0,17,3.38,17,15.61V351.7c0,4.18.59,5.87,1.59,7.46h4.87l.49,4-14.71,1.39L447.73,356l-11.62,8.54c-8.85,0-15.11-5-15.11-13,0-3.87,1.49-6.75,3.88-9.54l22.26-7.25v-8.13c0-6-1-8.74-5.47-8.74a18.83,18.83,0,0,0-7.25,1.69l-1.59,8.64H422.59v-8.35Zm5.47,27.21-12.62,5.17a8.86,8.86,0,0,0-2.09,6.06c0,5,2.78,6.76,5.37,6.76a10.53,10.53,0,0,0,5.86-2.29l3.48-2.38Z"/><path class="cls-1" d="M485.42,327.08l10.93-14.91h9.93l-2.76,11.63h-7.17c-2.38.69-6,3.68-8.64,6.76l-1.69,2v25.32l10.53,1-.5,4.27-15.5-.3-11.73.3-.49-4,6.46-1.1V319.82l-6.46.5-.5-4.07,12.42-3,4.57-.39Z"/><path class="cls-1" d="M552.57,337c0,15.5-10.24,24.83-25.35,27.51-13,0-22.26-11.41-22.26-25.23,0-15.7,10.24-24.83,25.34-27.62C543.32,311.67,552.57,323.09,552.57,337ZM530,359.26c6.65,0,10.33-8.24,10.33-19.17,0-13.82-5.56-23.15-12.92-23.15-6.76,0-10.33,8.24-10.33,19.17C517.09,349,522.45,359.26,530,359.26Z"/><path class="cls-1" d="M565.42,362.83l-11.83.3-.5-4,6.36-1.1V300.44l-6.46.2-.49-4.07,12.92-3,5.46-.4v64.87l6.86,1.1-.5,4Z"/><path class="cls-1" d="M594.54,362.83l-11.83.3-.5-4,6.46-1.1V319.72l-6.46.4-.49-4,12.92-2.89,5.46-.39v45.19l6.76,1.1-.5,4Zm-5.37-68.57,8.15-.6,3,.6.6,6.06-1.19,5.17-8.05.6-3-.6-.59-6.06Z"/><path class="cls-1" d="M623.93,362.83l-11.83.3-.5-4,6.46-1.1V319.82l-6.56.5-.49-4.07,12.92-3L629,313l.3,8.24,14.91-9.54c12.22,0,15.11,3.88,15.11,15.81v30.58l6.85,1.1-.49,4-11.83-.3-10.24.3-.49-4,4.57-1.1V327.38c0-4.67-2.09-6.76-6-6.76-3.28,0-6.46,2.09-9.64,4.17l-2.59,1.79v31.48l4.87,1.1-.5,4Z"/><path class="cls-1" d="M688.63,311.67c13.22,0,17,3.38,17,15.61V351.7c0,4.18.59,5.87,1.59,7.46h4.87l.49,4-14.71,1.39L694.69,356l-11.62,8.54c-8.85,0-15.11-5-15.11-13,0-3.87,1.49-6.75,3.88-9.54l22.26-7.25v-8.13c0-6-1-8.74-5.47-8.74a18.83,18.83,0,0,0-7.25,1.69l-1.59,8.64H669.55v-8.35Zm5.47,27.21-12.62,5.17a8.81,8.81,0,0,0-2.09,6.06c0,5,2.78,6.76,5.36,6.76a10.53,10.53,0,0,0,5.87-2.29l3.48-2.38Z"/><path class="cls-1" d="M274.76,354.75a14.3,14.3,0,0,1-6.29,1.62c-3.77,0-5.16-2.88-5.16-6.06V317.74h11.45v-4.87H263.21V300.64h-3.48l-7.65,6.86v4.77h-4.49l-3.68,3.78v1.69h8v33.57c0,9.64,4,13.21,14,13.21l8.22-4.49Z"/><path class="cls-1" d="M491.57,224.7l.8-.09v-3.85l-.9,0-.36,1h-.37v-1.42l2.22,0,2.14,0v1.42h-.36l-.37-1-.89,0v3.85l.77.09,0,.35-1.28,0-1.32,0Zm3.91,0,.55-.09v-3.84l-.56-.08,0-.35.68,0,1.2,0,1.36,3.28v.59l1.51-3.87,1,0,.81,0,0,.35-.54.08v3.84l.53.09,0,.35-1,0-1.07,0,0-.35.56-.09v-3.06l.11-.82L498.88,225h-.68l-1.41-3.43-.21-.83v3.83l.55.09,0,.35-.79,0-.8,0Z"/></svg>