<svg id="Layer_1" data-name="Layer 1" xmlns="http://www.w3.org/2000/svg" viewBox="0 0 844.76 244.82"><defs><style>.cls-1{fill:#fff;}</style></defs><title>grid_uofsc_primary_black_on_white</title><rect x="50.86" y="69.39" width="109.57" height="109.57"/><path class="cls-1" d="M94.41,140.93l-7.07-3.45c-2.74-1.31-4.27-2.85-4.27-5.31,0-2.69,2.13-4.77,6.13-4.77a8.52,8.52,0,0,1,6.47,2.9l1.59,5h3.89V126.8a22.08,22.08,0,0,0-11.34-3.18c-10.14,2.19-14.25,6.36-14.25,11.45,0,4.77,3.07,7.51,7.56,9.7l6.74,3.29c3.29,1.53,4.88,3.5,4.88,6.19,0,3.56-2.52,5.75-6.19,5.75a9.91,9.91,0,0,1-7.35-3.67l-1.86-5H74.68l1.21,8.88a20.7,20.7,0,0,0,11.72,3.72c10-2.46,15.07-6.35,15.07-12.6C102.68,146.69,100.54,143.89,94.41,140.93Zm12.07-56.52-5.75.15-6.45-.15L94,86.73l4.23.65v19.77c0,6.1-2.77,9.68-7.91,9.68-5.35,0-8-3.58-8-9.58V87.38l3.68-.65-.25-2.32-8.12.15-6.8-.15-.26,2.32,3.94.65v19.87c0,8,4,13.41,15.42,13.41,10-2.37,12.76-7,12.76-13.62V87.38l4-.65Zm7.57,27.18,2.46-1c5-2.12,7.64-5.74,7.64-10.43a7.12,7.12,0,0,0-7.42-7.49l-2.45,1.16c-4.89,2.23-7.64,5.77-7.64,10.47S110.06,111.59,114.05,111.59Zm1.16-16.44c2.27.49,3.8,2.39,3.8,6.15,0,3.06-1.05,6.67-3.47,7.86-2.23-.52-3.76-2.38-3.76-6.14C111.78,100,112.82,96.35,115.21,95.15Zm21.46-10.74L132.13,87c-1.9,1.08-2.83,3.36-3.21,5.37l-.22,1.3h-2l-1.79,1.57-.19.78h3.58l-2.87,16.32a7.06,7.06,0,0,1-1.38,3.28h-4.21l-.78,4.17h2.72l4.1-2.72c2.34-1.6,4.06-3.43,4.47-5.7L133.06,96h4l.41-2.16h-4.06l.6-3.43A4.56,4.56,0,0,1,135.22,88H140l.67-3.54ZM132,156.6c-2,1.92-2.69,3.67-6.26,3.67-7.72,0-10.91-7.94-10.91-17.25,0-10.09,3.46-15.78,10.26-15.78,4.49,0,5.43,2.13,6.91,4l1.76,5.37h3.78v-9.37c-2.8-1.64-5.88-3.67-11.25-3.67-13.64,2.08-20.56,8.11-20.56,21,0,12.6,8.18,19.28,18.81,19.28A42.37,42.37,0,0,0,137.28,160l1.1-9.81h-3.67Z"/><path d="M206,147.14a17.84,17.84,0,0,0,13.15,6.19c7.43,0,12-4.57,12-11.24,0-5.62-3.62-9.24-9.34-11.82l-11.52-5.33c-7.34-3.34-12.77-7.91-12.77-16.29,0-9.72,8.38-16.3,23.63-19.54a34,34,0,0,1,18.39,5.53v13.72h-5.63l-2.76-8.67a14.21,14.21,0,0,0-11.24-4.86c-7.24,0-11.43,3.91-11.43,9.53,0,4.76,3.33,7.81,8.28,10.1l11.63,5.24c8.86,4.19,14.19,9,14.1,17.91,0,9.81-7.24,17.63-25,21.63a32.61,32.61,0,0,1-20-6.48l-2.1-14h7.34Z"/><path d="M293,132.57c0,14.86-9.82,23.81-24.3,26.38-12.48,0-21.34-10.94-21.34-24.19,0-15,9.81-23.81,24.29-26.47C284.17,108.29,293,119.23,293,132.57ZM271.4,153.9c6.38,0,9.91-7.89,9.91-18.38,0-13.24-5.34-22.18-12.39-22.18-6.48,0-9.91,7.89-9.91,18.37C259,144.1,264.16,153.9,271.4,153.9Z"/><path d="M339.94,145c0,3.9.47,5.43,1.24,7h4.38l.38,3.81-13.72,2.58-2.76-8L315.83,159c-12.1,0-15-4-15-15.15V116.1l-6.1.48-.47-4.2,11.91-2.57,5.71-.38v34.18c0,4.58,1.91,6.67,6.29,6.67,2.58,0,5.81-1.9,9-4L329,145V116.1l-5.34.48-.47-4.2,11.05-2.57,5.72-.38Z"/><path d="M395.12,152.76l4.77,1.05-.48,3.81-9.53-.29-11.33.29-.48-3.81,6.1-1.05V97.52l-6.2.19-.47-3.81L389.88,91l5.24-.38v26.68l14.2-9c11.72,0,14.39,4.09,14.39,16v28.47l6.57,1.05-.47,3.81-11.34-.29-9.63.29-.47-3.81,4.29-1.05V123.34c0-4.48-2.1-6.48-5.63-6.48-2.76,0-6.09,2-9.33,4l-2.58,1.62Z"/><path d="M511.13,136.85l-2.19,15.24a84.26,84.26,0,0,1-22.59,7.15c-14.48,0-32.13-11.82-32.13-33.92,0-21.79,15.65-33.48,34.51-36.21,9.62,0,16.69,4,21.16,7v14.39H504l-3.05-9.06c-2.48-3-6.11-6.76-13.92-6.76-13.06,0-19.65,10-19.65,28.11,0,15.81,6.21,30.77,21.46,30.77,5.9,0,8.68-3.14,11.63-5.81l5-10.86Z"/><path d="M535,108.29c12.67,0,16.29,3.24,16.29,14.95v23.42c0,4,.58,5.62,1.53,7.15h4.67l.47,3.81L543.87,159l-3-8.19L529.68,159c-8.48,0-14.49-4.76-14.49-12.48a13.39,13.39,0,0,1,3.72-9.15l21.34-6.95v-7.79c0-5.72-1-8.39-5.24-8.39a18.28,18.28,0,0,0-7,1.62l-1.53,8.29h-9.81v-8Zm5.24,26.08-12.1,4.95a8.5,8.5,0,0,0-2,5.82c0,4.76,2.67,6.48,5.15,6.48a10.13,10.13,0,0,0,5.62-2.2l3.33-2.28Z"/><path d="M577,123.05l10.48-14.29H597l-2.65,11.15h-6.87c-2.28.67-5.71,3.52-8.28,6.48l-1.62,1.9v24.28l10.09,1-.47,4.1-14.87-.29-11.24.29-.47-3.81,6.19-1.05V116.1l-6.19.48-.48-3.91L572,109.81l4.38-.38Z"/><path d="M641.33,132.57c0,14.86-9.82,23.81-24.3,26.38-12.48,0-21.34-10.94-21.34-24.19,0-15,9.81-23.81,24.29-26.47C632.46,108.29,641.33,119.23,641.33,132.57ZM619.7,153.9c6.38,0,9.91-7.89,9.91-18.38,0-13.24-5.34-22.18-12.39-22.18-6.48,0-9.91,7.89-9.91,18.37C607.31,144.1,612.46,153.9,619.7,153.9Z"/><path d="M653.65,157.33l-11.34.29-.48-3.81,6.1-1.05V97.52l-6.19.19-.48-3.91L653.65,91l5.24-.39v62.2l6.57,1.05-.48,3.81Z"/><path d="M681.56,157.33l-11.33.29-.48-3.81,6.19-1.05V116l-6.19.38-.48-3.81,12.39-2.76,5.24-.38v43.33l6.48,1.05-.48,3.81Zm-5.14-65.74,7.81-.57,2.86.57.57,5.81-1.14,5-7.72.57-2.86-.57-.57-5.81Z"/><path d="M709.74,157.33l-11.34.29-.48-3.81,6.2-1.05V116.1l-6.29.48-.48-3.91,12.39-2.86,4.86-.29.28,7.91,14.29-9.14c11.72,0,14.49,3.71,14.49,15.14v29.33l6.57,1.05-.48,3.81-11.33-.29-9.82.29-.47-3.81,4.38-1.05V123.34c0-4.48-2-6.48-5.72-6.48-3.14,0-6.19,2-9.24,4l-2.48,1.72v30.18l4.67,1.05-.47,3.81Z"/><path d="M771.77,108.29c12.67,0,16.29,3.24,16.29,14.95v23.42c0,4,.57,5.62,1.53,7.15h4.66l.48,3.81L780.63,159l-3-8.19L766.43,159C758,159,752,154.19,752,146.47a13.39,13.39,0,0,1,3.72-9.15L777,130.37v-7.79c0-5.72-1-8.39-5.24-8.39a18.38,18.38,0,0,0-7,1.62l-1.52,8.29h-9.81v-8ZM777,134.37l-12.1,4.95a8.5,8.5,0,0,0-2,5.82c0,4.76,2.67,6.48,5.14,6.48a10.07,10.07,0,0,0,5.62-2.2l3.34-2.28Z"/><path d="M375,149.58a13.54,13.54,0,0,1-6,1.56c-3.62,0-5-2.76-5-5.81V114.1h11v-4.67H363.92V97.71h-3.34l-7.33,6.57v4.58H349l-3.53,3.62v1.62h7.64v32.18c0,9.24,3.81,12.67,13.43,12.67l7.88-4.3Z"/><rect x="50.86" y="69.39" width="109.57" height="109.57"/><path class="cls-1" d="M94.41,140.93l-7.07-3.45c-2.74-1.31-4.27-2.85-4.27-5.31,0-2.69,2.13-4.77,6.13-4.77a8.52,8.52,0,0,1,6.47,2.9l1.59,5h3.89V126.8a22.08,22.08,0,0,0-11.34-3.18c-10.14,2.19-14.25,6.36-14.25,11.45,0,4.77,3.07,7.51,7.56,9.7l6.74,3.29c3.29,1.53,4.88,3.5,4.88,6.19,0,3.56-2.52,5.75-6.19,5.75a9.91,9.91,0,0,1-7.35-3.67l-1.86-5H74.68l1.21,8.88a20.7,20.7,0,0,0,11.72,3.72c10-2.46,15.07-6.35,15.07-12.6C102.68,146.69,100.54,143.89,94.41,140.93Zm12.07-56.52-5.75.15-6.45-.15L94,86.73l4.23.65v19.77c0,6.1-2.77,9.68-7.91,9.68-5.35,0-8-3.58-8-9.58V87.38l3.68-.65-.25-2.32-8.12.15-6.8-.15-.26,2.32,3.94.65v19.87c0,8,4,13.41,15.42,13.41,10-2.37,12.76-7,12.76-13.62V87.38l4-.65Zm7.57,27.18,2.46-1c5-2.12,7.64-5.74,7.64-10.43a7.12,7.12,0,0,0-7.42-7.49l-2.45,1.16c-4.89,2.23-7.64,5.77-7.64,10.47S110.06,111.59,114.05,111.59Zm1.16-16.44c2.27.49,3.8,2.39,3.8,6.15,0,3.06-1.05,6.67-3.47,7.86-2.23-.52-3.76-2.38-3.76-6.14C111.78,100,112.82,96.35,115.21,95.15Zm21.46-10.74L132.13,87c-1.9,1.08-2.83,3.36-3.21,5.37l-.22,1.3h-2l-1.79,1.57-.19.78h3.58l-2.87,16.32a7.06,7.06,0,0,1-1.38,3.28h-4.21l-.78,4.17h2.72l4.1-2.72c2.34-1.6,4.06-3.43,4.47-5.7L133.06,96h4l.41-2.16h-4.06l.6-3.43A4.56,4.56,0,0,1,135.22,88H140l.67-3.54ZM132,156.6c-2,1.92-2.69,3.67-6.26,3.67-7.72,0-10.91-7.94-10.91-17.25,0-10.09,3.46-15.78,10.26-15.78,4.49,0,5.43,2.13,6.91,4l1.76,5.37h3.78v-9.37c-2.8-1.64-5.88-3.67-11.25-3.67-13.64,2.08-20.56,8.11-20.56,21,0,12.6,8.18,19.28,18.81,19.28A42.37,42.37,0,0,0,137.28,160l1.1-9.81h-3.67Z"/><path d="M206,147.14a17.84,17.84,0,0,0,13.15,6.19c7.43,0,12-4.57,12-11.24,0-5.62-3.62-9.24-9.34-11.82l-11.52-5.33c-7.34-3.34-12.77-7.91-12.77-16.29,0-9.72,8.38-16.3,23.63-19.54a34,34,0,0,1,18.39,5.53v13.72h-5.63l-2.76-8.67a14.21,14.21,0,0,0-11.24-4.86c-7.24,0-11.43,3.91-11.43,9.53,0,4.76,3.33,7.81,8.28,10.1l11.63,5.24c8.86,4.19,14.19,9,14.1,17.91,0,9.81-7.24,17.63-25,21.63a32.61,32.61,0,0,1-20-6.48l-2.1-14h7.34Z"/><path d="M293,132.57c0,14.86-9.82,23.81-24.3,26.38-12.48,0-21.34-10.94-21.34-24.19,0-15,9.81-23.81,24.29-26.47C284.17,108.29,293,119.23,293,132.57ZM271.4,153.9c6.38,0,9.91-7.89,9.91-18.38,0-13.24-5.34-22.18-12.39-22.18-6.48,0-9.91,7.89-9.91,18.37C259,144.1,264.16,153.9,271.4,153.9Z"/><path d="M339.94,145c0,3.9.47,5.43,1.24,7h4.38l.38,3.81-13.72,2.58-2.76-8L315.83,159c-12.1,0-15-4-15-15.15V116.1l-6.1.48-.47-4.2,11.91-2.57,5.71-.38v34.18c0,4.58,1.91,6.67,6.29,6.67,2.58,0,5.81-1.9,9-4L329,145V116.1l-5.34.48-.47-4.2,11.05-2.57,5.72-.38Z"/><path d="M395.12,152.76l4.77,1.05-.48,3.81-9.53-.29-11.33.29-.48-3.81,6.1-1.05V97.52l-6.2.19-.47-3.81L389.88,91l5.24-.38v26.68l14.2-9c11.72,0,14.39,4.09,14.39,16v28.47l6.57,1.05-.47,3.81-11.34-.29-9.63.29-.47-3.81,4.29-1.05V123.34c0-4.48-2.1-6.48-5.63-6.48-2.76,0-6.09,2-9.33,4l-2.58,1.62Z"/><path d="M511.13,136.85l-2.19,15.24a84.26,84.26,0,0,1-22.59,7.15c-14.48,0-32.13-11.82-32.13-33.92,0-21.79,15.65-33.48,34.51-36.21,9.62,0,16.69,4,21.16,7v14.39H504l-3.05-9.06c-2.48-3-6.11-6.76-13.92-6.76-13.06,0-19.65,10-19.65,28.11,0,15.81,6.21,30.77,21.46,30.77,5.9,0,8.68-3.14,11.63-5.81l5-10.86Z"/><path d="M535,108.29c12.67,0,16.29,3.24,16.29,14.95v23.42c0,4,.58,5.62,1.53,7.15h4.67l.47,3.81L543.87,159l-3-8.19L529.68,159c-8.48,0-14.49-4.76-14.49-12.48a13.39,13.39,0,0,1,3.72-9.15l21.34-6.95v-7.79c0-5.72-1-8.39-5.24-8.39a18.28,18.28,0,0,0-7,1.62l-1.53,8.29h-9.81v-8Zm5.24,26.08-12.1,4.95a8.5,8.5,0,0,0-2,5.82c0,4.76,2.67,6.48,5.15,6.48a10.13,10.13,0,0,0,5.62-2.2l3.33-2.28Z"/><path d="M577,123.05l10.48-14.29H597l-2.65,11.15h-6.87c-2.28.67-5.71,3.52-8.28,6.48l-1.62,1.9v24.28l10.09,1-.47,4.1-14.87-.29-11.24.29-.47-3.81,6.19-1.05V116.1l-6.19.48-.48-3.91L572,109.81l4.38-.38Z"/><path d="M641.33,132.57c0,14.86-9.82,23.81-24.3,26.38-12.48,0-21.34-10.94-21.34-24.19,0-15,9.81-23.81,24.29-26.47C632.46,108.29,641.33,119.23,641.33,132.57ZM619.7,153.9c6.38,0,9.91-7.89,9.91-18.38,0-13.24-5.34-22.18-12.39-22.18-6.48,0-9.91,7.89-9.91,18.37C607.31,144.1,612.46,153.9,619.7,153.9Z"/><path d="M653.65,157.33l-11.34.29-.48-3.81,6.1-1.05V97.52l-6.19.19-.48-3.91L653.65,91l5.24-.39v62.2l6.57,1.05-.48,3.81Z"/><path d="M681.56,157.33l-11.33.29-.48-3.81,6.19-1.05V116l-6.19.38-.48-3.81,12.39-2.76,5.24-.38v43.33l6.48,1.05-.48,3.81Zm-5.14-65.74,7.81-.57,2.86.57.57,5.81-1.14,5-7.72.57-2.86-.57-.57-5.81Z"/><path d="M709.74,157.33l-11.34.29-.48-3.81,6.2-1.05V116.1l-6.29.48-.48-3.91,12.39-2.86,4.86-.29.28,7.91,14.29-9.14c11.72,0,14.49,3.71,14.49,15.14v29.33l6.57,1.05-.48,3.81-11.33-.29-9.82.29-.47-3.81,4.38-1.05V123.34c0-4.48-2-6.48-5.72-6.48-3.14,0-6.19,2-9.24,4l-2.48,1.72v30.18l4.67,1.05-.47,3.81Z"/><path d="M771.77,108.29c12.67,0,16.29,3.24,16.29,14.95v23.42c0,4,.57,5.62,1.53,7.15h4.66l.48,3.81L780.63,159l-3-8.19L766.43,159C758,159,752,154.19,752,146.47a13.39,13.39,0,0,1,3.72-9.15L777,130.37v-7.79c0-5.72-1-8.39-5.24-8.39a18.38,18.38,0,0,0-7,1.62l-1.52,8.29h-9.81v-8ZM777,134.37l-12.1,4.95a8.5,8.5,0,0,0-2,5.82c0,4.76,2.67,6.48,5.14,6.48a10.07,10.07,0,0,0,5.62-2.2l3.34-2.28Z"/><path d="M375,149.58a13.54,13.54,0,0,1-6,1.56c-3.62,0-5-2.76-5-5.81V114.1h11v-4.67H363.92V97.71h-3.34l-7.33,6.57v4.58H349l-3.53,3.62v1.62h7.64v32.18c0,9.24,3.81,12.67,13.43,12.67l7.88-4.3Z"/><path class="cls-1" d="M141.29,159.9l.68-.07v-3.34l-.78,0-.3.85h-.33v-1.22l1.93,0,1.85,0v1.22H144l-.31-.85-.77,0v3.34l.66.07,0,.31-1.11,0-1.14,0Zm3.37,0,.48-.07v-3.32l-.49-.08,0-.29.59,0,1,0,1.18,2.83v.51l1.31-3.34.86,0,.69,0,0,.29-.48.08v3.32l.47.07,0,.31-.89,0-.93,0,0-.31.49-.07v-2.65l.09-.71-1.45,3.73H147l-1.22-3-.18-.72v3.32l.47.07,0,.31-.68,0-.68,0Z"/></svg>