<?xml version="1.0" encoding="UTF-8" standalone="no"?>
<!-- Created with Inkscape (http://www.inkscape.org/) -->
<svg
   xmlns:dc="http://purl.org/dc/elements/1.1/"
   xmlns:cc="http://web.resource.org/cc/"
   xmlns:rdf="http://www.w3.org/1999/02/22-rdf-syntax-ns#"
   xmlns:svg="http://www.w3.org/2000/svg"
   xmlns="http://www.w3.org/2000/svg"
   xmlns:xlink="http://www.w3.org/1999/xlink"
   xmlns:sodipodi="http://sodipodi.sourceforge.net/DTD/sodipodi-0.dtd"
   xmlns:inkscape="http://www.inkscape.org/namespaces/inkscape"
   version="1.0"
   width="672"
   height="322"
   id="svg2"
   sodipodi:version="0.32"
   inkscape:version="0.45.1"
   sodipodi:docname="State_Feedback_with_Estimator.svg"
   sodipodi:docbase="/home/darkcode"
   inkscape:output_extension="org.inkscape.output.svg.inkscape">
  <metadata
     id="metadata6586">
    <rdf:RDF>
      <cc:Work
         rdf:about="">
        <dc:format>image/svg+xml</dc:format>
        <dc:type
           rdf:resource="http://purl.org/dc/dcmitype/StillImage" />
      </cc:Work>
    </rdf:RDF>
  </metadata>
  <sodipodi:namedview
     inkscape:document-units="px"
     inkscape:zoom="1.4815581"
     inkscape:window-height="768"
     inkscape:window-width="1278"
     inkscape:pageshadow="2"
     inkscape:pageopacity="0.0"
     guidetolerance="10.0"
     gridtolerance="10.0"
     objecttolerance="10.0"
     borderopacity="1.0"
     bordercolor="#666666"
     pagecolor="#ffffff"
     id="base"
     inkscape:cx="336"
     inkscape:cy="161"
     inkscape:current-layer="svg2" />
  <defs
     id="defs4">
    <marker
       refX="0"
       refY="0"
       orient="auto"
       style="overflow:visible"
       id="Arrow1Lend">
      <path
         d="M 0,0 L 5,-5 L -12.5,0 L 5,5 L 0,0 z "
         transform="matrix(-0.8,0,0,-0.8,-10,0)"
         style="fill-rule:evenodd;stroke:#000000;stroke-width:1pt;marker-start:none"
         id="path5302" />
    </marker>
  </defs>
  <path
     id="rect4267"
     style="opacity:0.98999999;fill:#ffffff;fill-opacity:1;stroke:#000000;stroke-width:0.99999988;stroke-miterlimit:4;stroke-dashoffset:0;stroke-opacity:1"
     d="M 156.02837,12.38985 L 198.5401,12.38985 L 198.5401,54.90156 L 156.02837,54.90156 L 156.02837,12.38985 z " />
  <path
     id="rect4269"
     style="opacity:0.98999999;fill:#ffffff;fill-opacity:1;stroke:#000000;stroke-width:0.99999994;stroke-miterlimit:4;stroke-dashoffset:0;stroke-opacity:1"
     d="M 355.44174,12.38984 L 397.95347,12.38984 L 397.95347,54.90157 L 355.44174,54.90157 L 355.44174,12.38984 z " />
  <path
     id="rect4271"
     style="opacity:0.98999999;fill:#ffffff;fill-opacity:1;stroke:#000000;stroke-width:0.99999988;stroke-miterlimit:4;stroke-dashoffset:0;stroke-opacity:1"
     d="M 355.44171,72.49415 L 397.95344,72.49415 L 397.95344,115.00588 L 355.44171,115.00588 L 355.44171,72.49415 z " />
  <path
     id="rect4273"
     style="opacity:0.98999999;fill:#ffffff;fill-opacity:1;stroke:#000000;stroke-width:0.99999994;stroke-miterlimit:4;stroke-dashoffset:0;stroke-opacity:1"
     d="M 496.51547,12.38985 L 539.02719,12.38985 L 539.02719,54.90157 L 496.51547,54.90157 L 496.51547,12.38985 z " />
  <path
     id="rect4275"
     style="opacity:0.98999999;fill:#ffffff;fill-opacity:1;stroke:#000000;stroke-width:0.99999988;stroke-miterlimit:4;stroke-dashoffset:0;stroke-opacity:1"
     d="M 56.507569,135.02062 L 99.019295,135.02062 L 99.019295,177.53235 L 56.507569,177.53235 L 56.507569,135.02062 z " />
  <path
     id="rect4279"
     style="opacity:0.98999999;fill:#ffffff;fill-opacity:1;stroke:#000000;stroke-width:0.99999988;stroke-miterlimit:4;stroke-dashoffset:0;stroke-opacity:1"
     d="M 156.02837,197.54586 L 198.5401,197.54586 L 198.5401,240.05757 L 156.02837,240.05757 L 156.02837,197.54586 z " />
  <path
     id="rect4281"
     style="opacity:0.98999999;fill:#ffffff;fill-opacity:1;stroke:#000000;stroke-width:0.99999988;stroke-miterlimit:4;stroke-dashoffset:0;stroke-opacity:1"
     d="M 355.22265,196.59427 L 397.73438,196.59427 L 397.73438,239.106 L 355.22265,239.106 L 355.22265,196.59427 z " />
  <path
     id="rect4283"
     style="opacity:0.98999999;fill:#ffffff;fill-opacity:1;stroke:#000000;stroke-width:0.99999988;stroke-miterlimit:4;stroke-dashoffset:0;stroke-opacity:1"
     d="M 355.2226,259.11168 L 397.73433,259.11168 L 397.73433,301.6234 L 355.2226,301.6234 L 355.2226,259.11168 z " />
  <path
     id="rect4285"
     style="opacity:0.98999999;fill:#ffffff;fill-opacity:1;stroke:#000000;stroke-width:0.99999988;stroke-miterlimit:4;stroke-dashoffset:0;stroke-opacity:1"
     d="M 496.51547,196.37849 L 539.02719,196.37849 L 539.02719,238.89021 L 496.51547,238.89021 L 496.51547,196.37849 z " />
  <path
     id="rect4287"
     style="opacity:0.98999999;fill:#ffffff;fill-opacity:1;stroke:#000000;stroke-width:0.99999988;stroke-miterlimit:4;stroke-dashoffset:0;stroke-opacity:1"
     d="M 355.44174,135.02062 L 397.95347,135.02062 L 397.95347,177.53235 L 355.44174,177.53235 L 355.44174,135.02062 z " />
  <path
     id="path4289"
     style="opacity:0.98999999;fill:#ffffff;fill-opacity:1;stroke:#000000;stroke-width:0.99999994;stroke-miterlimit:4;stroke-dashoffset:0;stroke-opacity:1"
     d="M 297.95862,33.64572 C 297.95862,45.37894 288.43599,54.90157 276.70275,54.90157 C 264.96954,54.90157 255.44689,45.37894 255.44689,33.64572 C 255.44689,21.91247 264.96954,12.38985 276.70275,12.38985 C 288.43599,12.38985 297.95862,21.91247 297.95862,33.64572 z " />
  <path
     id="path4291"
     style="opacity:0.98999999;fill:#ffffff;fill-opacity:1;stroke:#000000;stroke-width:0.99999994;stroke-miterlimit:4;stroke-dashoffset:0;stroke-opacity:1"
     d="M 99.019295,33.64571 C 99.019295,45.37894 89.496665,54.90157 77.763435,54.90157 C 66.030205,54.90157 56.507569,45.37894 56.507569,33.64571 C 56.507569,21.91247 66.030205,12.38985 77.763435,12.38985 C 89.496665,12.38985 99.019295,21.91247 99.019295,33.64571 z " />
  <path
     id="path4293"
     style="opacity:0.98999999;fill:#ffffff;fill-opacity:1;stroke:#000000;stroke-width:0.99999994;stroke-miterlimit:4;stroke-dashoffset:0;stroke-opacity:1"
     d="M 299.70481,218.61706 C 299.70481,230.46942 290.08551,240.08872 278.23314,240.08872 C 266.38079,240.08872 256.76148,230.46942 256.76148,218.61706 C 256.76148,206.7647 266.38079,197.1454 278.23314,197.1454 C 290.08551,197.1454 299.70481,206.7647 299.70481,218.61706 z " />
  <path
     id="path4295"
     style="opacity:0.98999999;fill:#ffffff;fill-opacity:1;stroke:#000000;stroke-width:0.99999994;stroke-miterlimit:4;stroke-dashoffset:0;stroke-opacity:1"
     d="M 633.72546,156.27649 C 633.72546,168.12885 624.20283,177.74814 612.4696,177.74814 C 600.73636,177.74814 591.21374,168.12885 591.21374,156.27649 C 591.21374,144.42413 600.73636,134.80483 612.4696,134.80483 C 624.20283,134.80483 633.72546,144.42413 633.72546,156.27649 z " />
  <path
     id="text4297"
     style="font-size:32px;font-style:normal;font-weight:bold;fill:#000000;fill-opacity:1;stroke:none;stroke-width:1px;stroke-linecap:butt;stroke-linejoin:miter;stroke-opacity:1;font-family:Times New Roman"
     d="M 378.27007,97.89816 L 371.77675,97.89816 L 371.00404,99.68756 C 370.75099,100.28402 370.62447,100.77656 370.62447,101.16516 C 370.62447,101.68029 370.83234,102.05986 371.24805,102.30387 C 371.49206,102.44847 372.09303,102.55692 373.051,102.62921 L 373.051,103.13079 L 366.93723,103.13079 L 366.93723,102.62921 C 367.59697,102.5298 368.13921,102.25642 368.56395,101.80907 C 368.98872,101.36173 369.51288,100.43766 370.13646,99.03687 L 376.71114,84.36924 L 376.96869,84.36924 L 383.5976,99.44355 C 384.23019,100.87145 384.74984,101.77067 385.15654,102.1412 C 385.4638,102.42136 385.89759,102.58403 386.45792,102.62921 L 386.45792,103.13079 L 377.56516,103.13079 L 377.56516,102.62921 L 377.93118,102.62921 C 378.64511,102.62921 379.14668,102.5298 379.43589,102.33098 C 379.6347,102.18639 379.73413,101.97852 379.73413,101.7074 C 379.73413,101.54473 379.707,101.37754 379.65279,101.20583 C 379.6347,101.1245 379.49914,100.78559 379.24611,100.18913 L 378.27007,97.89816 z M 377.80917,96.89501 L 375.07085,90.56434 L 372.25119,96.89501 L 377.80917,96.89501 z " />
  <path
     id="text4301"
     style="font-size:32px;font-style:normal;font-weight:bold;fill:#000000;fill-opacity:1;stroke:none;stroke-width:1px;stroke-linecap:butt;stroke-linejoin:miter;stroke-opacity:1;font-family:Times New Roman"
     d="M 180.57157,33.08991 C 182.31577,33.4966 183.54034,33.98913 184.24527,34.56752 C 185.25743,35.38992 185.76351,36.45633 185.76353,37.76674 C 185.76351,39.14946 185.20772,40.29268 184.09614,41.19641 C 182.73149,42.28994 180.74779,42.8367 178.14504,42.8367 L 168.80494,42.8367 L 168.80494,42.33512 C 169.65445,42.33512 170.23059,42.25605 170.53334,42.09789 C 170.83609,41.93974 171.04845,41.73414 171.17046,41.4811 C 171.29246,41.22805 171.35348,40.60447 171.35348,39.61036 L 171.35348,27.68105 C 171.35348,26.68696 171.29246,26.06112 171.17046,25.80354 C 171.04845,25.54599 170.83382,25.34039 170.52655,25.18674 C 170.21929,25.03312 169.64542,24.95631 168.80494,24.95629 L 168.80494,24.45471 L 177.61636,24.45471 C 179.72206,24.45473 181.21323,24.64226 182.08986,25.01729 C 182.96647,25.39236 183.65782,25.95267 184.16393,26.69824 C 184.67001,27.44384 184.92305,28.23686 184.92307,29.07732 C 184.92305,29.963 184.60222,30.7515 183.96058,31.44285 C 183.31892,32.13422 182.18926,32.68324 180.57157,33.08991 L 180.57157,33.08991 z M 175.63718,32.7239 C 176.92048,32.72391 177.86714,32.57931 178.47717,32.2901 C 179.08718,32.00092 179.55487,31.59424 179.88022,31.07006 C 180.20556,30.54591 180.36822,29.87714 180.36824,29.06377 C 180.36822,28.25042 180.20781,27.58391 179.887,27.06425 C 179.56615,26.54462 179.10751,26.14924 178.51106,25.8781 C 177.91458,25.60699 176.95662,25.47595 175.63718,25.48497 L 175.63718,32.7239 z M 175.63718,33.78127 L 175.63718,39.67814 L 175.62363,40.35594 C 175.62363,40.84396 175.74788,41.21223 175.99642,41.46076 C 176.24493,41.70929 176.6132,41.83355 177.10123,41.83355 C 177.82421,41.83355 178.49072,41.67314 179.10075,41.35231 C 179.71076,41.03149 180.17845,40.56606 180.5038,39.95603 C 180.82914,39.34602 180.9918,38.66596 180.99181,37.91585 C 180.9918,37.05731 180.79298,36.28687 180.39535,35.60455 C 179.9977,34.92224 179.45094,34.44552 178.75507,34.17439 C 178.05919,33.90328 177.01988,33.77224 175.63718,33.78127 L 175.63718,33.78127 z " />
  <path
     id="text4305"
     style="font-size:32px;font-style:normal;font-weight:bold;fill:#000000;fill-opacity:1;stroke:none;stroke-width:1px;stroke-linecap:butt;stroke-linejoin:miter;stroke-opacity:1;font-family:Times New Roman"
     d="M 526.48786,24.03449 L 526.48786,30.40583 L 525.95918,30.40583 C 525.56151,28.74297 524.82045,27.4687 523.73599,26.58302 C 522.6515,25.69738 521.42241,25.25455 520.04875,25.25453 C 518.90098,25.25455 517.84814,25.58441 516.89019,26.24412 C 515.93222,26.90387 515.23182,27.76693 514.78901,28.83333 C 514.21965,30.19798 513.93496,31.71625 513.93497,33.38815 C 513.93496,35.03295 514.14283,36.53089 514.55855,37.88197 C 514.97427,39.23306 515.62495,40.25428 516.51062,40.94564 C 517.39628,41.637 518.54401,41.98267 519.95385,41.98267 C 521.11063,41.98267 522.17025,41.72963 523.13274,41.22353 C 524.09521,40.71745 525.10965,39.84534 526.17606,38.60722 L 526.17606,40.19328 C 525.1458,41.26873 524.07261,42.04819 522.95652,42.53169 C 521.84039,43.0152 520.53676,43.25694 519.0456,43.25694 C 517.08449,43.25694 515.34253,42.86382 513.81976,42.07757 C 512.29695,41.29132 511.1221,40.16165 510.29519,38.68856 C 509.46825,37.21548 509.0548,35.6475 509.0548,33.98461 C 509.0548,32.23138 509.51344,30.56851 510.43074,28.996 C 511.34802,27.42351 512.58614,26.20347 514.1451,25.33587 C 515.70403,24.4683 517.36012,24.03451 519.11338,24.03449 C 520.40572,24.03451 521.77035,24.31467 523.2073,24.87496 C 524.03872,25.20033 524.56741,25.363 524.79336,25.36298 C 525.08254,25.363 525.33333,25.25681 525.54572,25.04441 C 525.75808,24.83205 525.89589,24.49541 525.95918,24.03449 L 526.48786,24.03449 z " />
  <path
     id="text4309"
     style="font-size:32px;font-style:normal;font-weight:bold;fill:#000000;fill-opacity:1;stroke:none;stroke-width:1px;stroke-linecap:butt;stroke-linejoin:miter;stroke-opacity:1;font-family:Times New Roman"
     d="M 445.19676,19.32925 L 447.39283,23.50451 C 448.15196,24.95952 448.75295,25.88133 449.19579,26.26994 C 449.43978,26.4778 449.77418,26.59077 450.19894,26.60884 L 450.19894,27.09686 L 443.13624,27.09686 L 443.13624,26.60884 C 443.68751,26.56365 444.02867,26.49135 444.15972,26.39194 C 444.29075,26.29253 444.35627,26.15697 444.35629,25.98526 C 444.35627,25.73222 444.21168,25.33457 443.92249,24.79233 L 442.82446,22.73181 L 441.88908,24.10097 C 441.46432,24.72455 441.22483,25.09508 441.17061,25.21257 C 441.09832,25.38428 441.06216,25.53791 441.06216,25.67347 C 441.06216,25.88133 441.1051,26.0553 441.19095,26.19538 C 441.2768,26.33546 441.39428,26.43939 441.54341,26.50717 C 441.69252,26.57495 441.9659,26.60884 442.36354,26.60884 L 442.36354,27.09686 L 437.40204,27.09686 L 437.40204,26.60884 C 438.01658,26.60884 438.57916,26.43939 439.08977,26.10049 C 439.60037,25.76159 440.3437,24.87367 441.31973,23.43673 L 442.36354,21.89134 L 440.18102,17.85164 C 439.46707,16.5322 438.93388,15.72335 438.58141,15.42511 C 438.22896,15.12689 437.83583,14.9597 437.40204,14.92354 L 437.40204,14.42196 L 444.42406,14.42196 L 444.42406,14.92354 L 444.05805,14.93709 L 443.35314,15.1811 C 443.28083,15.24438 443.24469,15.3483 443.24469,15.49289 C 443.24469,15.62846 443.26727,15.76854 443.31246,15.91313 C 443.33958,15.9764 443.4661,16.22041 443.69203,16.64515 L 444.68163,18.48877 L 445.19676,17.75675 C 445.91974,16.76265 446.28123,16.06677 446.28125,15.66912 C 446.28123,15.47935 446.20216,15.31893 446.04402,15.18788 C 445.88585,15.05685 445.60343,14.96874 445.19676,14.92354 L 445.19676,14.42196 L 449.68381,14.42196 L 449.68381,14.92354 C 449.13252,14.94162 448.61739,15.11107 448.13842,15.43189 C 447.65943,15.75273 447.12171,16.37404 446.52525,17.29584 L 445.19676,19.32925 z " />
  <path
     id="text4313"
     style="font-size:32px;font-style:normal;font-weight:bold;fill:#000000;fill-opacity:1;stroke:none;stroke-width:1px;stroke-linecap:butt;stroke-linejoin:miter;stroke-opacity:1;font-family:Times New Roman"
     d="M 636.91644,19.72444 L 632.82252,10.33011 C 632.20798,8.91125 631.75385,8.03915 631.46014,7.71379 C 631.16643,7.38846 630.81171,7.16253 630.39598,7.03599 L 630.39598,6.53442 L 637.13333,6.53442 L 637.13333,7.03599 C 636.69051,7.05408 636.37871,7.13993 636.19798,7.29356 C 636.01722,7.4472 635.92685,7.63247 635.92686,7.84935 C 635.92685,8.19278 636.15278,8.87058 636.60466,9.88276 L 638.77362,14.84427 L 640.25123,11.00791 C 640.78442,9.64328 641.05103,8.69436 641.05104,8.16114 C 641.05103,7.82677 640.94032,7.56017 640.71892,7.36134 C 640.49748,7.16253 640.10662,7.05408 639.54631,7.03599 L 639.54631,6.53442 L 643.78936,6.53442 L 643.78936,7.03599 C 643.37363,7.08119 643.03472,7.2416 642.77265,7.51723 C 642.51056,7.79288 642.07225,8.73051 641.45772,10.33011 L 637.83825,19.72444 C 636.92547,22.07415 636.24767,23.52012 635.80485,24.06237 C 635.18127,24.8215 634.39954,25.20107 633.45965,25.20108 C 632.70955,25.20107 632.10179,24.98643 631.63637,24.55716 C 631.17095,24.12789 630.93824,23.6105 630.93824,23.005 C 630.93824,22.48083 631.09864,22.04704 631.41948,21.70362 C 631.74029,21.3602 632.13567,21.18849 632.60562,21.18849 C 633.05749,21.18849 633.42124,21.33309 633.69689,21.62228 C 633.97252,21.91148 634.11486,22.35882 634.1239,22.96433 C 634.13293,23.30775 634.1736,23.52916 634.2459,23.62858 C 634.3182,23.72798 634.42213,23.77769 634.55768,23.77769 C 634.77459,23.77769 635.00504,23.64665 635.24905,23.38457 C 635.61054,23.00499 636.0353,22.13741 636.52332,20.78181 L 636.91644,19.72444 z " />
  <path
     id="text4317"
     style="font-size:32px;font-style:normal;font-weight:bold;fill:#000000;fill-opacity:1;stroke:none;stroke-width:1px;stroke-linecap:butt;stroke-linejoin:miter;stroke-opacity:1;font-family:Times New Roman"
     d="M 25.243268,9.26993 L 25.243268,12.14381 C 26.083734,10.83341 26.820278,9.96356 27.452901,9.53428 C 28.085507,9.10501 28.695528,8.89038 29.282966,8.89036 C 29.789047,8.89038 30.193468,9.04627 30.496231,9.35805 C 30.798971,9.66985 30.950346,10.11042 30.950358,10.67976 C 30.950346,11.28527 30.803489,11.75522 30.509787,12.08959 C 30.216062,12.42398 29.861346,12.59117 29.445638,12.59116 C 28.966648,12.59117 28.550931,12.43754 28.198483,12.13026 C 27.846017,11.823 27.638158,11.65129 27.574906,11.61513 C 27.484523,11.56091 27.380594,11.5338 27.263117,11.53379 C 27.001025,11.5338 26.752498,11.63321 26.517535,11.83202 C 26.146996,12.1393 25.866838,12.57762 25.677061,13.14696 C 25.387859,14.02359 25.243261,14.99059 25.243268,16.04795 L 25.243268,18.9625 L 25.256824,19.72164 C 25.256817,20.23677 25.288448,20.56663 25.351716,20.71123 C 25.460157,20.95524 25.620571,21.13372 25.832955,21.24669 C 26.045326,21.35966 26.404561,21.4297 26.91066,21.45681 L 26.91066,21.94483 L 20.064863,21.94483 L 20.064863,21.45681 C 20.616139,21.41162 20.98893,21.26025 21.183235,21.00268 C 21.377536,20.74512 21.474688,20.06506 21.47469,18.9625 L 21.47469,11.95403 C 21.474688,11.23105 21.438538,10.77015 21.366242,10.57131 C 21.275866,10.31828 21.144824,10.13301 20.973117,10.01552 C 20.801405,9.89804 20.498654,9.81671 20.064863,9.77151 L 20.064863,9.26993 L 25.243268,9.26993 z " />
  <path
     id="text4321"
     style="font-size:32px;font-style:normal;font-weight:bold;fill:#000000;fill-opacity:1;stroke:none;stroke-width:1px;stroke-linecap:butt;stroke-linejoin:miter;stroke-opacity:1;font-family:Times New Roman"
     d="M 127.15015,7.41081 L 127.15015,17.33382 C 127.15015,18.30082 127.24052,18.90407 127.42127,19.14355 C 127.60202,19.38305 127.96802,19.53442 128.51932,19.59768 L 128.51932,20.0857 L 123.35446,20.0857 L 123.35446,18.3912 C 122.74896,19.11418 122.14346,19.64061 121.53796,19.97047 C 120.93245,20.30034 120.25465,20.46527 119.50455,20.46527 C 118.79061,20.46527 118.15573,20.24611 117.59994,19.8078 C 117.04413,19.36949 116.67134,18.85662 116.48157,18.26919 C 116.29177,17.68176 116.19688,16.65603 116.19688,15.19197 L 116.19688,10.16268 C 116.19688,9.20473 116.10877,8.60827 115.93253,8.37329 C 115.75632,8.13833 115.38804,7.98469 114.82773,7.91238 L 114.82773,7.41081 L 119.99258,7.41081 L 119.99258,16.07311 C 119.99256,16.97685 120.0355,17.55976 120.12136,17.82184 C 120.20721,18.08393 120.34276,18.28275 120.52804,18.41831 C 120.7133,18.55387 120.92794,18.62165 121.17196,18.62165 C 121.49728,18.62165 121.791,18.53579 122.05308,18.36408 C 122.41457,18.12911 122.84837,17.65465 123.35446,16.9407 L 123.35446,10.16268 C 123.35446,9.20473 123.26634,8.60827 123.09013,8.37329 C 122.9139,8.13833 122.54562,7.98469 121.98531,7.91238 L 121.98531,7.41081 L 127.15015,7.41081 z " />
  <path
     id="path4325"
     style="fill:none;fill-rule:evenodd;stroke:#000000;stroke-width:0.99999994px;stroke-linecap:butt;stroke-linejoin:miter;marker-end:url(#Arrow1Lend);stroke-opacity:1"
     d="M 0.643887,33.64571 L 49.509325,33.64571" />
  <path
     id="path5494"
     style="fill:none;fill-rule:evenodd;stroke:#000000;stroke-width:0.99999994px;stroke-linecap:butt;stroke-linejoin:miter;marker-mid:none;marker-end:url(#Arrow1Lend);stroke-opacity:1"
     d="M 104.17249,33.64571 C 104.17249,33.64571 146.68421,33.64571 146.68421,33.64571" />
  <path
     id="path6465"
     style="fill:none;fill-rule:evenodd;stroke:#000000;stroke-width:0.99999994;stroke-linecap:butt;stroke-linejoin:miter;marker-mid:none;marker-end:url(#Arrow1Lend);stroke-miterlimit:4;stroke-dasharray:none;stroke-opacity:1"
     d="M 206.65828,33.64571 L 249.16999,33.64571" />
  <path
     id="path6467"
     style="fill:none;fill-rule:evenodd;stroke:#000000;stroke-width:0.99999994;stroke-linecap:butt;stroke-linejoin:miter;marker-mid:none;marker-end:url(#Arrow1Lend);stroke-miterlimit:4;stroke-dasharray:none;stroke-opacity:1"
     d="M 305.30069,33.64571 L 347.81242,33.64571" />
  <path
     id="path6469"
     style="fill:none;fill-rule:evenodd;stroke:#000000;stroke-width:0.99999994;stroke-linecap:butt;stroke-linejoin:miter;marker-mid:none;marker-end:url(#Arrow1Lend);stroke-miterlimit:4;stroke-dasharray:none;stroke-opacity:1"
     d="M 404.54715,33.64571 L 490.43819,33.64571" />
  <path
     id="path6471"
     style="fill:none;fill-rule:evenodd;stroke:#000000;stroke-width:0.99999988;stroke-linecap:butt;stroke-linejoin:miter;marker-mid:none;marker-end:url(#Arrow1Lend);stroke-miterlimit:4;stroke-dasharray:none;stroke-opacity:1"
     d="M 207.47856,221.24623 L 249.99028,221.24623" />
  <path
     id="path6473"
     style="fill:none;fill-rule:evenodd;stroke:#000000;stroke-width:0.99999994;stroke-linecap:butt;stroke-linejoin:miter;marker-mid:none;marker-end:url(#Arrow1Lend);stroke-miterlimit:4;stroke-dasharray:none;stroke-opacity:1"
     d="M 307.41649,221.24623 L 344.73786,221.24623" />
  <path
     id="path6475"
     style="fill:none;fill-rule:evenodd;stroke:#000000;stroke-width:0.99999994;stroke-linecap:butt;stroke-linejoin:miter;marker-mid:none;marker-end:url(#Arrow1Lend);stroke-miterlimit:4;stroke-dasharray:none;stroke-opacity:1"
     d="M 405.58373,216.75793 L 491.47476,216.75793" />
  <path
     id="path6479"
     style="fill:none;fill-rule:evenodd;stroke:#000000;stroke-width:0.99999994px;stroke-linecap:butt;stroke-linejoin:miter;marker-end:url(#Arrow1Lend);stroke-opacity:1"
     d="M 582.92083,156.08476 C 579.41525,156.08476 409.03925,156.96115 409.03925,156.96115" />
  <path
     id="path7450"
     style="fill:none;fill-rule:evenodd;stroke:#000000;stroke-width:0.99999994px;stroke-linecap:butt;stroke-linejoin:miter;marker-mid:none;marker-end:url(#Arrow1Lend);stroke-opacity:1"
     d="M 77.763435,127.82078 L 77.763435,60.3558" />
  <path
     id="path9392"
     style="fill:none;fill-rule:evenodd;stroke:#000000;stroke-width:0.99999994px;stroke-linecap:butt;stroke-linejoin:miter;marker-end:url(#Arrow1Lend);stroke-opacity:1"
     d="M 121.71088,33.32329 L 121.71088,220.73284 L 149.09177,221.09585" />
  <path
     id="path10363"
     style="fill:none;fill-rule:evenodd;stroke:#000000;stroke-width:0.99999994px;stroke-linecap:butt;stroke-linejoin:miter;marker-end:url(#Arrow1Lend);stroke-opacity:1"
     d="M 436.33961,281.49751 L 405.83441,281.49751" />
  <path
     id="path11334"
     style="fill:none;fill-rule:evenodd;stroke:#000000;stroke-width:0.99999994px;stroke-linecap:butt;stroke-linejoin:miter;marker-end:url(#Arrow1Lend);stroke-opacity:1"
     d="M 345.81428,281.25188 L 277.41904,281.25188 L 277.41904,245.74123" />
  <path
     id="path12305"
     style="fill:none;fill-rule:evenodd;stroke:#000000;stroke-width:0.99999994px;stroke-linecap:butt;stroke-linejoin:miter;marker-end:url(#Arrow1Lend);stroke-opacity:1"
     d="M 551.35238,220.36984 L 612.69999,220.36984 L 612.69999,185.36501" />
  <path
     id="path13276"
     style="fill:none;fill-rule:evenodd;stroke:#000000;stroke-width:0.99999994px;stroke-linecap:butt;stroke-linejoin:miter;marker-end:url(#Arrow1Lend);stroke-opacity:1"
     d="M 340.67294,156.40043 L 277.84064,156.40043 L 277.84064,191.4757" />
  <path
     id="path13278"
     style="fill:none;fill-rule:evenodd;stroke:#000000;stroke-width:0.99999994px;stroke-linecap:butt;stroke-linejoin:miter;marker-end:url(#Arrow1Lend);stroke-opacity:1"
     d="M 610.88491,33.64571 L 612.63769,126.20096" />
  <path
     id="path13280"
     style="fill:none;fill-rule:evenodd;stroke:#000000;stroke-width:0.99999994;stroke-linecap:butt;stroke-linejoin:miter;marker-end:url(#Arrow1Lend);stroke-miterlimit:4;stroke-dasharray:none;stroke-opacity:1"
     d="M 445.08389,32.91319 L 445.58027,97.32098 L 407.97478,97.32098" />
  <path
     id="path13282"
     style="fill:none;fill-rule:evenodd;stroke:#000000;stroke-width:0.99999994px;stroke-linecap:butt;stroke-linejoin:miter;marker-end:url(#Arrow1Lend);stroke-opacity:1"
     d="M 340.68876,99.61335 L 275.34601,99.61335 L 275.34601,61.43956" />
  <path
     id="path13284"
     style="fill:none;fill-rule:evenodd;stroke:#000000;stroke-width:0.99999994px;stroke-linecap:butt;stroke-linejoin:miter;marker-end:url(#Arrow1Lend);stroke-opacity:1"
     d="M 436.91211,216.48163 L 436.91211,321.09291 L 77.763435,321.09291 L 77.763435,185.59061" />
  <path
     id="path13286"
     style="fill:none;fill-rule:evenodd;stroke:#000000;stroke-width:0.99999994px;stroke-linecap:butt;stroke-linejoin:miter;marker-end:url(#Arrow1Lend);stroke-opacity:1"
     d="M 545.83731,34.44166 L 671.35612,33.56527" />
  <path
     id="text13300"
     style="font-size:32px;font-style:normal;font-weight:bold;fill:#000000;fill-opacity:1;stroke:none;stroke-width:1px;stroke-linecap:butt;stroke-linejoin:miter;stroke-opacity:1;font-family:Times New Roman"
     d="M 385.204,159.0148 L 384.51265,165.46747 L 368.19119,165.46747 L 368.19119,164.9659 L 368.8012,164.9659 C 369.33441,164.9659 369.76369,164.87101 370.08903,164.68122 C 370.324,164.5547 370.50475,164.33781 370.63127,164.03053 C 370.73068,163.81364 370.78038,163.24428 370.78038,162.32247 L 370.78038,150.23049 C 370.78038,149.29062 370.73068,148.70319 370.63127,148.46821 C 370.53186,148.23325 370.33077,148.02766 370.02803,147.85141 C 369.72528,147.6752 369.31633,147.58708 368.8012,147.58706 L 368.19119,147.58706 L 368.19119,147.08549 L 377.99219,147.08549 L 377.99219,147.58706 L 377.19239,147.58706 C 376.65918,147.58708 376.2299,147.68197 375.90456,147.87174 C 375.66959,147.99828 375.48433,148.21518 375.34877,148.52243 C 375.24935,148.73935 375.19964,149.3087 375.19966,150.23049 L 375.19966,161.94291 C 375.19964,162.88279 375.25387,163.48152 375.36232,163.73908 C 375.47076,163.99665 375.68314,164.18869 375.99946,164.31521 C 376.22538,164.39654 376.77214,164.43722 377.63975,164.43722 L 379.17157,164.43722 C 380.14759,164.43722 380.96096,164.2655 381.61166,163.92209 C 382.26234,163.57867 382.82491,163.03643 383.29938,162.29536 C 383.77382,161.55431 384.22343,160.46078 384.64821,159.0148 L 385.204,159.0148 z " />
  <path
     id="text13304"
     style="font-size:32px;font-style:normal;font-weight:bold;fill:#000000;fill-opacity:1;stroke:none;stroke-width:1px;stroke-linecap:butt;stroke-linejoin:miter;stroke-opacity:1;font-family:Times New Roman"
     d="M 78.061655,154.12107 L 84.527885,162.21403 C 85.440635,163.35273 86.226885,164.12542 86.886635,164.5321 C 87.365595,164.8213 87.871685,164.9659 88.404915,164.9659 L 88.404915,165.46747 L 78.834355,165.46747 L 78.834355,164.9659 C 79.439845,164.91167 79.830705,164.81678 80.006945,164.68122 C 80.183165,164.54566 80.271275,164.37847 80.271295,164.17965 C 80.271275,163.80008 79.855555,163.08613 79.024135,162.03779 L 74.808205,156.73739 L 74.130405,157.30674 L 74.130405,162.32247 C 74.130395,163.28043 74.184625,163.87689 74.293075,164.11187 C 74.401515,164.34684 74.609385,164.54792 74.916655,164.71511 C 75.223915,164.88231 75.716455,164.9659 76.394265,164.9659 L 76.394265,165.46747 L 67.121935,165.46747 L 67.121935,164.9659 L 67.731955,164.9659 C 68.265155,164.9659 68.694435,164.87101 69.019785,164.68122 C 69.254755,164.5547 69.435495,164.3378 69.562025,164.03053 C 69.661435,163.81364 69.711135,163.24428 69.711135,162.32247 L 69.711135,150.23049 C 69.711135,149.29062 69.661435,148.70319 69.562025,148.46821 C 69.462605,148.23325 69.261525,148.02765 68.958775,147.85141 C 68.656025,147.67519 68.247085,147.58708 67.731955,147.58706 L 67.121935,147.58706 L 67.121935,147.08549 L 76.272255,147.08549 L 76.272255,147.58706 C 75.648675,147.58708 75.174215,147.67745 74.848875,147.85818 C 74.613895,147.98472 74.428625,148.1971 74.293075,148.49532 C 74.184625,148.72126 74.130395,149.29966 74.130405,150.23049 L 74.130405,155.95114 L 80.949095,150.43383 C 81.897995,149.66567 82.372455,149.05113 82.372475,148.59021 C 82.372455,148.24681 82.178165,147.97569 81.789565,147.77685 C 81.590725,147.67745 81.098185,147.61419 80.311955,147.58706 L 80.311955,147.08549 L 87.483105,147.08549 L 87.483105,147.58706 C 86.841425,147.63226 86.337595,147.74749 85.971605,147.93274 C 85.605565,148.11802 84.762835,148.74386 83.443405,149.81025 L 78.061655,154.12107 z " />
  <path
     id="text13312"
     style="font-size:32px;font-style:normal;font-weight:bold;fill:#000000;fill-opacity:1;stroke:none;stroke-width:1px;stroke-linecap:butt;stroke-linejoin:miter;stroke-opacity:1;font-family:Times New Roman"
     d="M 324.28012,11.4417 L 326.4762,15.61696 C 327.23533,17.07198 327.83632,17.99379 328.27916,18.38239 C 328.52317,18.59025 328.85753,18.70322 329.28231,18.72129 L 329.28231,19.20931 L 322.21961,19.20931 L 322.21961,18.72129 C 322.77088,18.67611 323.11204,18.60381 323.24309,18.5044 C 323.37413,18.40499 323.43965,18.26942 323.43965,18.09771 C 323.43965,17.84467 323.29505,17.44703 323.00586,16.90478 L 321.90783,14.84427 L 320.97245,16.21343 C 320.54771,16.83701 320.3082,17.20754 320.25399,17.32502 C 320.18168,17.49673 320.14553,17.65037 320.14554,17.78593 C 320.14553,17.99379 320.18847,18.16776 320.27432,18.30783 C 320.36017,18.44791 320.47767,18.55184 320.62678,18.61962 C 320.77589,18.6874 321.04927,18.72129 321.44692,18.72129 L 321.44692,19.20931 L 316.48541,19.20931 L 316.48541,18.72129 C 317.09995,18.72129 317.66252,18.55184 318.17314,18.21294 C 318.68374,17.87404 319.42706,16.98612 320.4031,15.54918 L 321.44692,14.00379 L 319.26439,9.96409 C 318.55045,8.64465 318.01725,7.83581 317.66478,7.53756 C 317.31232,7.23934 316.9192,7.07215 316.48541,7.03599 L 316.48541,6.53442 L 323.50743,6.53442 L 323.50743,7.03599 L 323.14142,7.04955 L 322.43651,7.29356 C 322.3642,7.35683 322.32806,7.46076 322.32806,7.60534 C 322.32806,7.74092 322.35065,7.88099 322.39585,8.02558 C 322.42294,8.08885 322.54947,8.33286 322.77542,8.75761 L 323.76499,10.60123 L 324.28012,9.8692 C 325.00311,8.8751 325.3646,8.17923 325.36462,7.78157 C 325.3646,7.5918 325.28553,7.43139 325.12739,7.30033 C 324.96922,7.1693 324.6868,7.08119 324.28012,7.03599 L 324.28012,6.53442 L 328.76718,6.53442 L 328.76718,7.03599 C 328.21589,7.05408 327.70076,7.22353 327.22179,7.54434 C 326.7428,7.86518 326.20507,8.4865 325.60861,9.4083 L 324.28012,11.4417 z M 333.97269,9.42185 L 333.322,9.42185 L 331.89862,4.24345 C 331.71787,3.60181 331.6275,3.00986 331.6275,2.46761 C 331.6275,1.8802 331.81955,1.38992 332.20363,0.99678 C 332.58772,0.60367 333.05991,0.40711 333.62025,0.40709 C 334.26189,0.40711 334.75669,0.61497 335.10462,1.03067 C 335.45255,1.4464 335.62653,1.89827 335.62653,2.38627 C 335.62653,2.79297 335.52259,3.40751 335.31474,4.22989 L 333.97269,9.42185 z " />
  <path
     id="path13322"
     style="fill:none;fill-rule:evenodd;stroke:#000000;stroke-width:0.99999994px;stroke-linecap:butt;stroke-linejoin:miter;stroke-opacity:1"
     d="M 434.84067,195.09528 L 440.75633,189.61782 L 446.4529,194.21889" />
  <path
     id="path13324"
     style="fill:none;fill-rule:evenodd;stroke:#000000;stroke-width:0.99999994px;stroke-linecap:butt;stroke-linejoin:miter;stroke-opacity:1"
     d="M 622.94398,216.94808 L 628.85966,211.47062 L 634.55622,216.07169" />
  <path
     id="text13326"
     style="font-size:18px;font-style:normal;font-weight:bold;fill:#000000;fill-opacity:1;stroke:none;stroke-width:1px;stroke-linecap:butt;stroke-linejoin:miter;stroke-opacity:1;font-family:Times New Roman"
     d="M 377.62079,19.93653 L 377.62079,28.39295 C 377.62079,29.0284 377.64873,29.4338 377.70466,29.60919 C 377.76057,29.78457 377.8775,29.92818 378.05541,30.04001 C 378.23334,30.15185 378.51802,30.20777 378.90945,30.20777 L 379.14585,30.20777 L 379.14585,30.4899 L 373.70139,30.4899 L 373.70139,30.20777 L 373.97591,30.20777 C 374.41816,30.20777 374.73335,30.15693 374.92143,30.05526 C 375.10952,29.95359 375.2366,29.8138 375.30271,29.63587 C 375.36879,29.45795 375.40182,29.04365 375.40184,28.39295 L 375.40184,23.03239 C 375.40182,22.55455 375.37895,22.25589 375.33319,22.13642 C 375.28744,22.01697 375.2023,21.9153 375.07775,21.83141 C 374.9532,21.74754 374.8096,21.7056 374.64693,21.70559 C 374.38768,21.7056 374.07248,21.78694 373.70139,21.9496 L 373.56413,21.67509 L 377.36915,19.93653 L 377.62079,19.93653 z " />
  <path
     id="text13330"
     style="font-size:18px;font-style:normal;font-weight:bold;fill:#000000;fill-opacity:1;stroke:none;stroke-width:1px;stroke-linecap:butt;stroke-linejoin:miter;stroke-opacity:1;font-family:Times New Roman"
     d="M 378.22474,39.8135 L 378.33912,42.24596 L 378.07986,42.24596 C 377.76977,41.52411 377.44824,41.03101 377.11526,40.76666 C 376.78229,40.50232 376.45059,40.37015 376.12017,40.37014 C 375.91174,40.37015 375.73381,40.44005 375.58639,40.57984 C 375.43897,40.71964 375.36526,40.88105 375.36526,41.06405 C 375.36526,41.20131 375.41609,41.33348 375.51776,41.46056 C 375.68043,41.66899 376.1354,42.0261 376.88268,42.53191 C 377.62996,43.03772 378.12179,43.46728 378.35818,43.82058 C 378.59456,44.17388 378.71275,44.56913 378.71276,45.00631 C 378.71275,45.40283 378.61363,45.79171 378.41539,46.17298 C 378.21711,46.55424 377.93751,46.84654 377.57659,47.04988 C 377.21567,47.25322 376.8166,47.35489 376.37944,47.35489 C 376.03884,47.35489 375.58384,47.24814 375.0145,47.03463 C 374.86199,46.97871 374.75779,46.95075 374.70186,46.95075 C 374.53411,46.95075 374.39432,47.07784 374.28247,47.33202 L 374.03084,47.33202 L 373.90884,44.76992 L 374.1681,44.76992 C 374.39685,45.44095 374.71076,45.94422 375.10981,46.27973 C 375.50888,46.61524 375.88631,46.783 376.24217,46.78299 C 376.48618,46.783 376.6857,46.70802 376.84074,46.55805 C 376.9958,46.40809 377.07333,46.22635 377.07333,46.01284 C 377.07333,45.76884 376.99707,45.55787 376.84457,45.37995 C 376.69207,45.20202 376.35146,44.9326 375.82277,44.57167 C 375.04501,44.03282 374.54173,43.62106 374.31298,43.33638 C 373.97746,42.91953 373.80971,42.45947 373.80971,41.9562 C 373.80971,41.40719 373.99908,40.91028 374.37779,40.46546 C 374.75651,40.02066 375.30426,39.79826 376.02105,39.79825 C 376.40738,39.79826 376.78101,39.8923 377.14194,40.08039 C 377.2792,40.15665 377.39103,40.19477 377.47746,40.19476 C 377.56896,40.19477 377.64268,40.17571 377.6986,40.13758 C 377.75451,40.09946 377.84346,39.99143 377.96549,39.8135 L 378.22474,39.8135 z " />
  <path
     id="path13334"
     style="fill:none;fill-rule:evenodd;stroke:#000000;stroke-width:0.99999994px;stroke-linecap:butt;stroke-linejoin:miter;stroke-opacity:1"
     d="M 367.27636,34.65277 L 386.11885,34.43368" />
  <path
     id="text13336"
     style="font-size:18px;font-style:normal;font-weight:bold;fill:#000000;fill-opacity:1;stroke:none;stroke-width:1px;stroke-linecap:butt;stroke-linejoin:miter;stroke-opacity:1;font-family:Times New Roman"
     d="M 377.74431,204.14094 L 377.74431,212.59737 C 377.7443,213.23281 377.77227,213.63822 377.82818,213.81359 C 377.88408,213.98898 378.00101,214.13259 378.17894,214.24443 C 378.35688,214.35626 378.64155,214.41218 379.03298,214.41218 L 379.26936,214.41218 L 379.26936,214.69432 L 373.82493,214.69432 L 373.82493,214.41218 L 374.09943,214.41218 C 374.54168,214.41218 374.85688,214.36134 375.04496,214.25967 C 375.23305,214.15801 375.36014,214.01821 375.42622,213.84028 C 375.4923,213.66237 375.52534,213.24806 375.52534,212.59737 L 375.52534,207.2368 C 375.52534,206.75896 375.50248,206.46031 375.45673,206.34083 C 375.41098,206.22138 375.32583,206.11971 375.20128,206.03582 C 375.07673,205.95195 374.93312,205.91001 374.77045,205.91001 C 374.51119,205.91001 374.19601,205.99135 373.82493,206.15401 L 373.68766,205.8795 L 377.49267,204.14094 L 377.74431,204.14094 z " />
  <path
     id="text13340"
     style="font-size:18px;font-style:normal;font-weight:bold;fill:#000000;fill-opacity:1;stroke:none;stroke-width:1px;stroke-linecap:butt;stroke-linejoin:miter;stroke-opacity:1;font-family:Times New Roman"
     d="M 378.44201,224.01793 L 378.5564,226.45039 L 378.29713,226.45039 C 377.98704,225.72854 377.6655,225.23544 377.33254,224.97109 C 376.99956,224.70675 376.66787,224.57458 376.33745,224.57457 C 376.12903,224.57458 375.9511,224.64448 375.80367,224.78426 C 375.65625,224.92407 375.58254,225.08547 375.58254,225.26847 C 375.58254,225.40573 375.63338,225.5379 375.73505,225.66499 C 375.89772,225.87342 376.35269,226.23053 377.09997,226.73633 C 377.84724,227.24215 378.33907,227.6717 378.57545,228.025 C 378.81185,228.37831 378.93003,228.77356 378.93003,229.21073 C 378.93003,229.60725 378.8309,229.99614 378.63265,230.3774 C 378.43439,230.75866 378.15479,231.05097 377.79386,231.25431 C 377.43293,231.45765 377.03388,231.55932 376.5967,231.55932 C 376.2561,231.55932 375.80113,231.45257 375.23179,231.23905 C 375.07927,231.18314 374.97506,231.15518 374.91915,231.15518 C 374.7514,231.15518 374.61158,231.28227 374.49975,231.53645 L 374.24812,231.53645 L 374.12613,228.97435 L 374.38538,228.97435 C 374.61413,229.64538 374.92804,230.14865 375.32709,230.48416 C 375.72616,230.81967 376.1036,230.98743 376.45945,230.98743 C 376.70345,230.98743 376.90297,230.91244 377.05803,230.76248 C 377.21308,230.61252 377.29059,230.43078 377.2906,230.21727 C 377.29059,229.97326 377.21434,229.7623 377.06185,229.58438 C 376.90933,229.40645 376.56874,229.13703 376.04006,228.7761 C 375.26227,228.23725 374.75901,227.82548 374.53026,227.5408 C 374.19475,227.12396 374.02699,226.6639 374.02699,226.16063 C 374.02699,225.61161 374.21635,225.1147 374.59506,224.66989 C 374.97378,224.22509 375.52153,224.00268 376.23832,224.00267 C 376.62465,224.00268 376.9983,224.09673 377.35924,224.28481 C 377.49649,224.36107 377.60832,224.3992 377.69475,224.3992 C 377.78625,224.3992 377.85996,224.38013 377.91587,224.342 C 377.97179,224.30388 378.06075,224.19586 378.18276,224.01793 L 378.44201,224.01793 z " />
  <path
     id="path13344"
     style="fill:none;fill-rule:evenodd;stroke:#000000;stroke-width:0.99999994px;stroke-linecap:butt;stroke-linejoin:miter;stroke-opacity:1"
     d="M 367.05728,218.85718 L 385.89975,218.63808" />
  <path
     id="text6476"
     style="font-size:24px;font-style:normal;font-variant:normal;font-weight:normal;font-stretch:normal;text-align:start;line-height:100%;writing-mode:lr-tb;text-anchor:start;fill:#000000;fill-opacity:1;stroke:none;stroke-width:1;stroke-linecap:butt;stroke-linejoin:round;stroke-miterlimit:4;stroke-dashoffset:0;stroke-opacity:1;font-family:Arial Black"
     d="M 85.011482,42.235555 L 70.515382,42.235555 L 70.515382,38.520705 L 75.601322,33.352745 L 70.515382,28.606645 L 70.515382,25.055865 L 84.741942,25.055865 L 84.741942,28.747275 L 76.245852,28.747275 L 81.284912,33.352745 L 76.245852,38.344925 L 85.011482,38.344925 L 85.011482,42.235555" />
  <use
     xlink:href="#text4301"
     height="322"
     width="672"
     y="0"
     x="0"
     id="use6490"
     transform="translate(-5e-6,185.15601)" />
  <use
     xlink:href="#text4297"
     height="322"
     width="672"
     y="0"
     x="0"
     id="use6506"
     transform="translate(-0.21912,186.61752)" />
  <use
     xlink:href="#text4305"
     height="322"
     width="672"
     y="0"
     x="0"
     id="use6508"
     transform="translate(-5e-6,183.98863)" />
  <use
     xlink:href="#text4309"
     height="322"
     width="672"
     y="0"
     x="0"
     id="use6520"
     transform="translate(-3.15371,183.43744)" />
  <use
     x="0"
     y="0"
     xlink:href="#text4313"
     id="use6646"
     transform="translate(-8.0995811,212.93904)"
     width="672"
     height="322" />
  <use
     x="0"
     y="0"
     xlink:href="#text6476"
     id="use6648"
     transform="translate(198.93932,0)"
     width="672"
     height="322" />
  <use
     x="0"
     y="0"
     xlink:href="#text6476"
     id="use6650"
     transform="translate(200.46971,184.97135)"
     width="672"
     height="322" />
  <use
     x="0"
     y="0"
     xlink:href="#text6476"
     id="use6652"
     transform="translate(534.70617,122.63078)"
     width="672"
     height="322" />
</svg>
