<?xml version="1.0" encoding="UTF-8" standalone="no"?>
<svg
   xmlns:dc="http://purl.org/dc/elements/1.1/"
   xmlns:cc="http://creativecommons.org/ns#"
   xmlns:rdf="http://www.w3.org/1999/02/22-rdf-syntax-ns#"
   xmlns:svg="http://www.w3.org/2000/svg"
   xmlns="http://www.w3.org/2000/svg"
   xmlns:sodipodi="http://sodipodi.sourceforge.net/DTD/sodipodi-0.dtd"
   xmlns:inkscape="http://www.inkscape.org/namespaces/inkscape"
   id="Layer_1"
   data-name="Layer 1"
   viewBox="0 0 800 407.67"
   version="1.1"
   sodipodi:docname="UofSC_formal.svg"
   inkscape:version="1.0.1 (3bc2e813f5, 2020-09-07)">
  <metadata
     id="metadata65">
    <rdf:RDF>
      <cc:Work
         rdf:about="">
        <dc:format>image/svg+xml</dc:format>
        <dc:type
           rdf:resource="http://purl.org/dc/dcmitype/StillImage" />
        <dc:title>grid_uofsc_formal</dc:title>
      </cc:Work>
    </rdf:RDF>
  </metadata>
  <sodipodi:namedview
     pagecolor="#ffffff"
     bordercolor="#666666"
     borderopacity="1"
     objecttolerance="10"
     gridtolerance="10"
     guidetolerance="10"
     inkscape:pageopacity="0"
     inkscape:pageshadow="2"
     inkscape:window-width="1920"
     inkscape:window-height="1017"
     id="namedview63"
     showgrid="false"
     inkscape:zoom="1.20125"
     inkscape:cx="400"
     inkscape:cy="203.83501"
     inkscape:window-x="1072"
     inkscape:window-y="520"
     inkscape:window-maximized="1"
     inkscape:current-layer="Layer_1" />
  <defs
     id="defs4">
    <style
       id="style2">.cls-1{fill:#73000a;}</style>
  </defs>
  <title
     id="title6">grid_uofsc_formal</title>
  <path
     d="M455.88,153.93V141.1s-14.08-17.19-33.76-17.19c-15.07,0-22,8.85-22,8.85s-6.94-8.85-22-8.85c-19.68,0-33.76,17.19-33.76,17.19v12.83s16.06-26.1,39.48-26.1c8.86,0,16.29,7.93,16.29,7.93s7.44-7.93,16.29-7.93C439.82,127.83,455.88,153.93,455.88,153.93Zm-46.45,19.4h0l4-9.72h-4l4-9.72h-4l3.22-7.81c8,3,13.56,14.26,13.56,14.26V151c-6.6-9.06-17.31-6.8-17.31-6.8l-4,9.72h4l-4,9.72h4l-4,9.72h-.11v34.49l6.67,10.67h4.87l-6.56-11.15H420v-2.4H409.43Zm-.22-36.69c23.72,0,31,22.62,31,22.62V147.18c-7.77-10-15.2-12-21.8-12.08A26,26,0,0,0,409.21,136.64Zm38.67,31.6,2-4.61H423.94l2,4.61Zm36.56,22v4.38h-9v-10.5h-4.61v10.5h-9V177.93h-4.61v16.74h-9.39V171.42h-22v47.24h4.61V176h12.77v42.63h4.61V197.07h9.39v21.59h4.61V197.07h9v21.59h4.61V197.07h9v21.59h4.62V190.29ZM400.11,96.61c0-2.79,11.69-26.64,32.12-32.42V53.26c-15.33,3.9-32.12,29.74-32.12,40,0-10.22-16.79-36.06-32.12-40V64.19C388.42,70,400.11,93.82,400.11,96.61Zm0,11.76S413.87,80.28,450,80.28V69.18c-34.17,0-49.9,34.86-49.9,34.86s-15.73-34.86-49.89-34.86v11.1C386.35,80.28,400.11,108.37,400.11,108.37Zm-8.83,55.24h4l-4-9.72h4l-4-9.72s-10.7-2.26-17.31,6.8v9.37s5.57-11.3,13.56-14.26l3.22,7.81h-4l4,9.72h-4l4,9.72h0v31.61H380.28v2.4h10.14l-6.55,11.15h4.86l6.67-10.67V173.33h-.11ZM361.22,100c22.71,0,38.89,18.9,38.89,18.9S416.3,100,439,100a43.06,43.06,0,0,1,21.61,5.61l0-12.46s-9.32-2.92-17-2.92c-29.4,0-43.49,25.24-43.49,25.24S386,90.21,356.62,90.21c-7.73,0-17.05,2.92-17.05,2.92l0,12.46A43.1,43.1,0,0,1,361.22,100Zm38.89-18.91s.26-17,14.53-24c.07-5.55.07-9.67.07-9.67-14.11,7.12-14.6,25.83-14.6,25.83s-.49-18.71-14.6-25.83c0,0,0,4.12.08,9.67C399.86,64.06,400.11,81.07,400.11,81.07Zm-47.77,87.17h22l2-4.61H350.35Zm29.5-33.14c-6.6.09-14,2.07-21.8,12.08v12.08s7.26-22.62,31-22.62A26,26,0,0,0,381.84,135.1Zm-7.67-19.64c16.32,0,25.94,11.89,25.94,11.89s9.62-11.94,25.94-11.89C449.66,115.66,467,137,467,137V121.51a59.82,59.82,0,0,0-36.17-11.89,39.82,39.82,0,0,0-30.69,14.69,39.82,39.82,0,0,0-30.69-14.69,59.85,59.85,0,0,0-36.17,11.89V137S350.57,115.66,374.17,115.46Zm-21.83,79.21H343V177.93h-4.61v16.74h-9v-10.5h-4.62v10.5h-9v-4.38h-4.61v28.37h4.61V197.07h9v21.59h4.62V197.07h9v21.59H343V197.07h9.39v21.59H357V176h12.77v42.63h4.62V171.42h-22Z"
     id="path8"
     inkscape:export-filename="UofSC_formal.png"
     inkscape:export-xdpi="300"
     inkscape:export-ydpi="300" />
  <path
     d="M238.78,248.46l.21-1.62,5.17.12,4.69-.12.2,1.62-3.35.52v16.17c0,5.3-2.15,8.85-10.19,10.75-8.49,0-11.48-4.32-11.48-10.75V249l-3.43-.52.2-1.62,5.53.12,5.95-.12.2,1.62-3.19.52v16.53c0,4.94,2.1,7.81,6.58,7.81,4.17,0,6.43-2.87,6.43-7.93V249Z"
     id="path10"
     inkscape:export-filename="UofSC_formal.png"
     inkscape:export-xdpi="300"
     inkscape:export-ydpi="300" />
  <path
     d="M261.73,273.07l3.23.53-.16,1.61-4.36-.12-4.77.12-.2-1.61,3.43-.53V249.18l-3.31-.72.2-1.62,3.56.12,3.59-.12,13.63,18.51,1,2.87V249l-3.24-.52.16-1.62,4.37.12,4.77-.12.2,1.62-3.44.52v26.27h-2.74l-15.08-21-.81-3.2Z"
     id="path12"
     inkscape:export-filename="UofSC_formal.png"
     inkscape:export-xdpi="300"
     inkscape:export-ydpi="300" />
  <path
     d="M296.17,275.09l-5.78.12-.21-1.65,3.44-.53V249l-3.44-.52.21-1.62,5.78.12,5.78-.12.2,1.62-3.44.52v24l3.44.53-.2,1.65Z"
     id="path14"
     inkscape:export-filename="UofSC_formal.png"
     inkscape:export-xdpi="300"
     inkscape:export-ydpi="300" />
  <path
     d="M321.54,275.82l-10.22-26.88-2.95-.48.2-1.62,6.26.12,5.14-.12.2,1.62-3.23.52,6.91,19.28.12,2.43L331.65,249l-3.36-.52.21-1.62,4.56.12,4.21-.12.2,1.62-2.87.48-9.86,25.91Z"
     id="path16"
     inkscape:export-filename="UofSC_formal.png"
     inkscape:export-xdpi="300"
     inkscape:export-ydpi="300" />
  <path
     d="M366,246.84l.4,7.48h-1.66l-2.34-5.26-10.15-.12v10.43l5.22-.16,1.62-4.29h1.69l-.4,5.26.4,5.58h-1.69l-1.62-4.29-5.22-.16v11.8l10.59-.12,2.71-5.46h1.82L366,275.21l-16.49-.12-5.58.12-.2-1.61,3.43-.53V249l-3.43-.52.2-1.62,5.58.12Z"
     id="path18"
     inkscape:export-filename="UofSC_formal.png"
     inkscape:export-xdpi="300"
     inkscape:export-ydpi="300" />
  <path
     d="M382,262.24v10.83l3.27.53-.2,1.61-5.62-.12-5.78.12-.2-1.61,3.43-.53V249l-3.43-.52.2-1.62,5.78.12,8.08-.12c5.1,0,9.1,2.3,9.1,7,0,4.49-4.16,6.75-8.57,7.76l3.48,1.82,6.54,9.58,2.07.61-.17,1.57-3.8-.12-3,.12-8.24-12.53-.49-.44Zm0-2.06h2.75c3.71,0,6.3-2.43,6.3-6s-2.38-5.46-5.46-5.5l-3.59.28Z"
     id="path20"
     inkscape:export-filename="UofSC_formal.png"
     inkscape:export-xdpi="300"
     inkscape:export-ydpi="300" />
  <path
     d="M410.55,270.77a7.62,7.62,0,0,0,5.58,2.63c3.15,0,5.09-1.94,5.09-4.77,0-2.39-1.53-3.92-4-5l-4.89-2.26c-3.11-1.41-5.41-3.35-5.41-6.91,0-4.12,3.55-6.91,10-8.29a14.35,14.35,0,0,1,7.8,2.35v5.82H422.4l-1.18-3.68a6,6,0,0,0-4.76-2.06c-3.08,0-4.86,1.66-4.86,4,0,2,1.42,3.31,3.52,4.28l4.93,2.23c3.76,1.78,6,3.8,6,7.6,0,4.16-3.07,7.47-10.59,9.17a13.81,13.81,0,0,1-8.48-2.75l-.89-5.94h3.11Z"
     id="path22"
     inkscape:export-filename="UofSC_formal.png"
     inkscape:export-xdpi="300"
     inkscape:export-ydpi="300" />
  <path
     d="M438.33,275.09l-5.78.12-.21-1.65,3.44-.53V249l-3.44-.52.21-1.62,5.78.12,5.78-.12.2,1.62-3.44.52v24l3.44.53-.2,1.65Z"
     id="path24"
     inkscape:export-filename="UofSC_formal.png"
     inkscape:export-xdpi="300"
     inkscape:export-ydpi="300" />
  <path
     d="M469.4,275.21l-6.84-.12-7,.12-.2-1.61,4.65-.53V249l-5.58.08-1.94,5.38h-1.78v-7.6l11.93.12,11.76-.12v7.6h-1.82l-1.9-5.38-5.58-.08v24.09l4.49.53Z"
     id="path26"
     inkscape:export-filename="UofSC_formal.png"
     inkscape:export-xdpi="300"
     inkscape:export-ydpi="300" />
  <path
     d="M497.32,264.14l0,8.93,4.53.53-.21,1.61-6.87-.12-7,.12-.2-1.61,4.69-.53V264l-8.94-15.12-2.95-.48.2-1.58,5.74.12,5.62-.12.2,1.58-3.23.52,6.75,11.4.2,1.74,7-13.14-3.32-.52.2-1.58,4.65.12,4.33-.12.2,1.58-2.95.44Z"
     id="path28"
     inkscape:export-filename="UofSC_formal.png"
     inkscape:export-xdpi="300"
     inkscape:export-ydpi="300" />
  <path
     d="M557.61,260.38c0,8.93-4.49,13.7-15,15.52-8.44,0-14.06-6.06-14.06-14.23,0-8.93,4.48-13.7,14.95-15.52C552,246.15,557.61,252.22,557.61,260.38Zm-14,13.1c5.86,0,8.37-5.14,8.37-11.77,0-5.94-2.59-13.13-9.46-13.13-5.86,0-8.4,5.09-8.4,11.72C534.17,266.4,536.83,273.48,543.66,273.48Z"
     id="path30"
     inkscape:export-filename="UofSC_formal.png"
     inkscape:export-xdpi="300"
     inkscape:export-ydpi="300" />
  <path
     d="M563.67,275.21l-.21-1.61,3.44-.53V249l-3.44-.52.21-1.62,5.57.12,16.49-.12.41,7.6h-1.66l-2.34-5.38L572,248.94v11l5.22-.17,1.61-4.24h1.7l-.4,5.25.4,5.58h-1.7l-1.61-4.28-5.22-.16v11.15l4.85.53-.2,1.61-7.4-.12Z"
     id="path32"
     inkscape:export-filename="UofSC_formal.png"
     inkscape:export-xdpi="300"
     inkscape:export-ydpi="300" />
  <path
     class="cls-1"
     d="M87.8,350.39a19.26,19.26,0,0,0,14.2,6.69c8,0,13-4.94,13-12.14,0-6.07-3.91-10-10.09-12.76l-12.45-5.76c-7.92-3.6-13.79-8.54-13.79-17.6,0-10.49,9.06-17.59,25.52-21.09a36.59,36.59,0,0,1,19.86,6v14.81H118l-3-9.36a15.38,15.38,0,0,0-12.15-5.25c-7.81,0-12.34,4.22-12.34,10.29,0,5.15,3.6,8.44,9,10.91L112,320.76c9.57,4.53,15.33,9.67,15.23,19.34,0,10.6-7.82,19-27,23.36a35.27,35.27,0,0,1-21.61-7l-2.26-15.12H84.3Z"
     id="path34"
     inkscape:export-filename="UofSC_formal.png"
     inkscape:export-xdpi="300"
     inkscape:export-ydpi="300" />
  <path
     class="cls-1"
     d="M181.82,334.66c0,16-10.6,25.71-26.24,28.49-13.48,0-23.05-11.82-23.05-26.12,0-16.26,10.6-25.71,26.24-28.59C172.25,308.44,181.82,320.26,181.82,334.66Zm-23.36,23c6.9,0,10.7-8.53,10.7-19.85,0-14.3-5.76-24-13.37-24-7,0-10.7,8.53-10.7,19.85C145.09,347.11,150.64,357.7,158.46,357.7Z"
     id="path36"
     inkscape:export-filename="UofSC_formal.png"
     inkscape:export-xdpi="300"
     inkscape:export-ydpi="300" />
  <path
     class="cls-1"
     d="M232.48,348c0,4.21.51,5.86,1.33,7.51h4.74l.41,4.11-14.82,2.78-3-8.64-14.71,9.36c-13.07,0-16.16-4.32-16.16-16.36V316.87l-6.58.52-.52-4.53,12.86-2.78,6.18-.41v36.92c0,4.93,2.05,7.2,6.79,7.2,2.78,0,6.27-2.06,9.67-4.32l1.95-1.34V316.87l-5.76.52-.51-4.53,11.93-2.78,6.18-.41Z"
     id="path38"
     inkscape:export-filename="UofSC_formal.png"
     inkscape:export-xdpi="300"
     inkscape:export-ydpi="300" />
  <path
     class="cls-1"
     d="M292.08,356.46l5.14,1.13-.51,4.12-10.29-.31-12.25.31-.51-4.12,6.58-1.13V296.81l-6.68.2L273,292.9l13.38-3.09,5.66-.41v28.81l15.33-9.77c12.65,0,15.53,4.42,15.53,17.28v30.74l7.1,1.13-.51,4.12-12.25-.31-10.39.31-.51-4.12,4.63-1.13V324.69c0-4.83-2.27-7-6.07-7-3,0-6.59,2.16-10.09,4.32l-2.77,1.75Z"
     id="path40"
     inkscape:export-filename="UofSC_formal.png"
     inkscape:export-xdpi="300"
     inkscape:export-ydpi="300" />
  <path
     class="cls-1"
     d="M417.35,339.28,415,355.74c-5.87,2.68-14.52,6.28-24.4,7.72-15.64,0-34.7-12.76-34.7-36.63,0-23.53,16.9-36.15,37.27-39.1,10.4,0,18,4.32,22.86,7.51v15.54h-6.38l-3.3-9.78c-2.67-3.29-6.59-7.3-15-7.3-14.09,0-21.22,10.8-21.22,30.35,0,17.08,6.71,33.24,23.18,33.24,6.38,0,9.37-3.4,12.56-6.28l5.35-11.73Z"
     id="path42"
     inkscape:export-filename="UofSC_formal.png"
     inkscape:export-xdpi="300"
     inkscape:export-ydpi="300" />
  <path
     class="cls-1"
     d="M443.14,308.44c13.69,0,17.6,3.49,17.6,16.15v25.29c0,4.32.61,6.07,1.64,7.71h5l.52,4.12-15.23,1.44-3.29-8.85-12,8.85c-9.16,0-15.64-5.14-15.64-13.48,0-4,1.54-7,4-9.88l23.05-7.51v-8.41c0-6.17-1-9.06-5.66-9.06a19.77,19.77,0,0,0-7.51,1.75l-1.64,9h-10.6v-8.65Zm5.66,28.16L435.73,342a9.19,9.19,0,0,0-2.16,6.28c0,5.15,2.88,7,5.56,7a10.93,10.93,0,0,0,6.07-2.37l3.6-2.47Z"
     id="path44"
     inkscape:export-filename="UofSC_formal.png"
     inkscape:export-xdpi="300"
     inkscape:export-ydpi="300" />
  <path
     class="cls-1"
     d="M488.44,324.38,499.75,309H510l-2.86,12h-7.42c-2.47.72-6.17,3.8-8.95,7L489.05,330v26.22l10.91,1-.51,4.42-16.06-.31-12.14.31-.51-4.12,6.69-1.13V316.87l-6.69.52-.52-4.22,12.87-3.09,4.73-.41Z"
     id="path46"
     inkscape:export-filename="UofSC_formal.png"
     inkscape:export-xdpi="300"
     inkscape:export-ydpi="300" />
  <path
     class="cls-1"
     d="M558,334.66c0,16-10.6,25.71-26.24,28.49-13.47,0-23-11.82-23-26.12,0-16.26,10.59-25.71,26.23-28.59C548.38,308.44,558,320.26,558,334.66Zm-23.35,23c6.89,0,10.7-8.53,10.7-19.85,0-14.3-5.77-24-13.38-24-7,0-10.7,8.53-10.7,19.85C521.22,347.11,526.78,357.7,534.6,357.7Z"
     id="path48"
     inkscape:export-filename="UofSC_formal.png"
     inkscape:export-xdpi="300"
     inkscape:export-ydpi="300" />
  <path
     class="cls-1"
     d="M571.26,361.4l-12.25.31-.51-4.12,6.58-1.13V296.81l-6.68.2-.52-4.21,13.38-3.09,5.66-.41v67.16l7.1,1.13-.52,4.12Z"
     id="path50"
     inkscape:export-filename="UofSC_formal.png"
     inkscape:export-xdpi="300"
     inkscape:export-ydpi="300" />
  <path
     class="cls-1"
     d="M601.41,361.4l-12.25.31-.51-4.12,6.69-1.13V316.77l-6.69.41-.52-4.11,13.38-3,5.66-.41v46.79l7,1.13-.51,4.12Zm-5.56-71,8.44-.62,3.08.62.62,6.27L606.76,302l-8.34.62-3.08-.62-.62-6.27Z"
     id="path52"
     inkscape:export-filename="UofSC_formal.png"
     inkscape:export-xdpi="300"
     inkscape:export-ydpi="300" />
  <path
     class="cls-1"
     d="M631.83,361.4l-12.24.31-.52-4.12,6.69-1.13V316.87l-6.79.52-.51-4.22,13.37-3.09,5.25-.31.31,8.54,15.43-9.87c12.66,0,15.64,4,15.64,16.35v31.67l7.1,1.13-.51,4.12-12.25-.31-10.6.31-.51-4.12,4.73-1.13V324.69c0-4.83-2.16-7-6.17-7-3.4,0-6.69,2.16-10,4.32l-2.68,1.85v32.59l5,1.13-.52,4.12Z"
     id="path54"
     inkscape:export-filename="UofSC_formal.png"
     inkscape:export-xdpi="300"
     inkscape:export-ydpi="300" />
  <path
     class="cls-1"
     d="M698.82,308.44c13.69,0,17.6,3.49,17.6,16.15v25.29c0,4.32.61,6.07,1.64,7.71h5l.52,4.12-15.23,1.44-3.29-8.85-12,8.85c-9.16,0-15.64-5.14-15.64-13.48,0-4,1.54-7,4-9.88l23.05-7.51v-8.41c0-6.17-1-9.06-5.66-9.06a19.77,19.77,0,0,0-7.51,1.75l-1.65,9H679.07v-8.65Zm5.66,28.16L691.41,342a9.19,9.19,0,0,0-2.16,6.28c0,5.15,2.88,7,5.56,7a10.93,10.93,0,0,0,6.07-2.37l3.6-2.47Z"
     id="path56"
     inkscape:export-filename="UofSC_formal.png"
     inkscape:export-xdpi="300"
     inkscape:export-ydpi="300" />
  <path
     class="cls-1"
     d="M270.33,353a14.67,14.67,0,0,1-6.5,1.68c-3.91,0-5.35-3-5.35-6.27V314.71h11.85v-5H258.38V297h-3.6l-7.93,7.1v4.94h-4.64L238.4,313v1.75h8.25v34.76c0,10,4.11,13.68,14.5,13.68l8.51-4.65Z"
     id="path58"
     inkscape:export-filename="UofSC_formal.png"
     inkscape:export-xdpi="300"
     inkscape:export-ydpi="300" />
  <path
     d="M494.81,218.39l.82-.09v-4l-.94,0-.36,1h-.39v-1.46l2.3,0,2.22,0v1.46h-.38l-.38-1-.92,0v4l.8.09,0,.37-1.33,0-1.36,0Zm4,0,.57-.09v-4l-.58-.08,0-.36.71,0,1.23,0,1.41,3.39v.62l1.57-4,1,0,.83,0,0,.36-.57.08v4l.55.09,0,.37-1.07,0-1.11,0,0-.37.58-.09v-3.17l.11-.84-1.73,4.45h-.71l-1.46-3.55-.22-.86v4l.57.09,0,.37-.81,0-.82,0Z"
     id="path60"
     inkscape:export-filename="UofSC_formal.png"
     inkscape:export-xdpi="300"
     inkscape:export-ydpi="300" />
</svg>
