<?xml version="1.0" encoding="UTF-8" standalone="no"?>
<svg
   xmlns:dc="http://purl.org/dc/elements/1.1/"
   xmlns:cc="http://creativecommons.org/ns#"
   xmlns:rdf="http://www.w3.org/1999/02/22-rdf-syntax-ns#"
   xmlns:svg="http://www.w3.org/2000/svg"
   xmlns="http://www.w3.org/2000/svg"
   xmlns:sodipodi="http://sodipodi.sourceforge.net/DTD/sodipodi-0.dtd"
   xmlns:inkscape="http://www.inkscape.org/namespaces/inkscape"
   id="Layer_2"
   data-name="Layer 2"
   viewBox="0 0 255.01 170"
   version="1.1"
   sodipodi:docname="UofSC_primary_CEC.svg"
   inkscape:version="1.0.1 (3bc2e813f5, 2020-09-07)">
  <metadata
     id="metadata63">
    <rdf:RDF>
      <cc:Work
         rdf:about="">
        <dc:format>image/svg+xml</dc:format>
        <dc:type
           rdf:resource="http://purl.org/dc/dcmitype/StillImage" />
        <dc:title>unit logos</dc:title>
      </cc:Work>
    </rdf:RDF>
  </metadata>
  <sodipodi:namedview
     pagecolor="#ffffff"
     bordercolor="#666666"
     borderopacity="1"
     objecttolerance="10"
     gridtolerance="10"
     guidetolerance="10"
     inkscape:pageopacity="0"
     inkscape:pageshadow="2"
     inkscape:window-width="1920"
     inkscape:window-height="1017"
     id="namedview61"
     showgrid="false"
     inkscape:zoom="3.7684797"
     inkscape:cx="127.505"
     inkscape:cy="85"
     inkscape:window-x="1072"
     inkscape:window-y="520"
     inkscape:window-maximized="1"
     inkscape:current-layer="Layer_2" />
  <defs
     id="defs4">
    <style
       id="style2">.cls-1{fill:#73000a;}.cls-2{fill:#fff;}</style>
  </defs>
  <title
     id="title6">unit logos</title>
  <rect
     class="cls-1"
     x="7.71"
     y="66.33"
     width="40.91"
     height="40.91"
     id="rect8"
     inkscape:export-filename="UofSC_primary_CEC.png"
     inkscape:export-xdpi="300"
     inkscape:export-ydpi="300" />
  <path
     class="cls-2"
     d="M24,93l-2.64-1.29c-1-.49-1.6-1.06-1.6-2S20.53,88,22,88a3.18,3.18,0,0,1,2.41,1.08L25,91h1.46v-3.2a8.33,8.33,0,0,0-4.24-1.18c-3.78.82-5.32,2.37-5.32,4.27s1.15,2.81,2.83,3.63l2.51,1.22c1.23.58,1.82,1.31,1.82,2.31a2.1,2.1,0,0,1-2.31,2.15A3.68,3.68,0,0,1,19,98.79l-.7-1.86H16.6l.45,3.31a7.76,7.76,0,0,0,4.38,1.4c3.75-.92,5.63-2.38,5.63-4.71C27.06,95.19,26.26,94.15,24,93Zm4.51-21.1-2.15,0-2.41,0-.09.86,1.58.25v7.38c0,2.27-1,3.61-3,3.61s-3-1.34-3-3.58V73.05l1.37-.25-.09-.86-3,0-2.54,0-.1.86,1.47.25v7.41c0,3,1.51,5,5.76,5,3.75-.88,4.76-2.6,4.76-5.08V73.05l1.49-.25ZM31.3,82.08l.92-.38a4.14,4.14,0,0,0,2.85-3.9A2.65,2.65,0,0,0,32.31,75l-.92.43a4.26,4.26,0,0,0-2.85,3.91A2.61,2.61,0,0,0,31.3,82.08ZM31.74,76c.84.18,1.42.89,1.42,2.29,0,1.15-.39,2.5-1.3,2.94-.83-.19-1.4-.89-1.4-2.3C30.46,77.74,30.85,76.39,31.74,76Zm8-4-1.7,1a2.82,2.82,0,0,0-1.19,2l-.09.49H36l-.67.58-.07.3h1.34l-1.08,6.09a2.52,2.52,0,0,1-.51,1.22H33.48l-.29,1.56h1l1.53-1A3.47,3.47,0,0,0,37.4,82l1-5.73h1.5l.16-.81H38.54l.22-1.28a1.76,1.76,0,0,1,.45-.93H41l.25-1.32ZM38,98.89c-.73.72-1,1.38-2.33,1.38-2.89,0-4.08-3-4.08-6.45,0-3.76,1.3-5.89,3.83-5.89A2.69,2.69,0,0,1,38,89.44l.66,2h1.41V88a7.44,7.44,0,0,0-4.2-1.37c-5.09.78-7.67,3-7.67,7.85s3.05,7.21,7,7.21A15.77,15.77,0,0,0,40,100.16l.41-3.66H39Z"
     id="path10"
     inkscape:export-filename="UofSC_primary_CEC.png"
     inkscape:export-xdpi="300"
     inkscape:export-ydpi="300" />
  <path
     class="cls-2"
     d="M41.58,100l.28,0V98.59h-.32l-.13.36h-.14v-.52h1.59V99h-.14l-.13-.36h-.32V100l.28,0v.13h-.95ZM43,100l.2,0V98.6l-.2,0v-.13h.68l.5,1.19v.22l.55-1.41h.65l0,.13-.2,0V100l.19,0v.13h-.77V100l.2,0V98.88l0-.29-.61,1.56H44l-.51-1.25-.07-.3V100l.2,0,0,.13H43Z"
     id="path12"
     inkscape:export-filename="UofSC_primary_CEC.png"
     inkscape:export-xdpi="300"
     inkscape:export-ydpi="300" />
  <path
     d="M70.85,80.61v2.84H59.64V67.31h11v2.84H63.48v3.64H70.3v2.82H63.48v4Z"
     id="path14"
     inkscape:export-filename="UofSC_primary_CEC.png"
     inkscape:export-xdpi="300"
     inkscape:export-ydpi="300" />
  <path
     d="M73.25,72.08h3.5v2.18a3.93,3.93,0,0,1,3.77-2.45c2.46,0,3.71,1.57,3.71,4.59v7H80.59V76.9c0-1.57-.54-2.32-1.7-2.32s-2,1-2,2.73v6.14H73.25Z"
     id="path16"
     inkscape:export-filename="UofSC_primary_CEC.png"
     inkscape:export-xdpi="300"
     inkscape:export-ydpi="300" />
  <path
     d="M97.08,72.49a2.42,2.42,0,0,0-1.47.41,3.35,3.35,0,0,1,1.32,2.71c0,2.31-2,3.86-5.21,3.86a8,8,0,0,1-2.34-.32.7.7,0,0,0-.32.59c0,.57.48.93,1.55.93h3.18c2.77,0,4.2,1.16,4.2,3.32,0,2.59-2.27,4.16-6.54,4.16-3.8,0-5.59-1.11-5.59-2.73,0-.9.66-1.63,2-2a2.21,2.21,0,0,1-1.57-2.14,2.73,2.73,0,0,1,2.05-2.59,3.43,3.43,0,0,1-1.75-3c0-2.3,2-3.8,5.18-3.8a7.83,7.83,0,0,1,2.64.41c.38-1.27,1.5-2.07,3.29-2.07a3.54,3.54,0,0,1,.46,0v2.44A5.34,5.34,0,0,0,97.08,72.49ZM89.83,83.7c-.29,0-.56,0-.81,0a1.4,1.4,0,0,0-.46,1.07c0,1,1.16,1.43,3,1.43,2.34,0,3.34-.52,3.34-1.34s-.5-1.09-1.55-1.09Zm3.66-8.09a1.77,1.77,0,1,0-3.52,0,1.77,1.77,0,1,0,3.52,0Z"
     id="path18"
     inkscape:export-filename="UofSC_primary_CEC.png"
     inkscape:export-xdpi="300"
     inkscape:export-ydpi="300" />
  <path
     d="M99.65,67.13h3.8v3.32h-3.8Zm.07,5h3.66V83.45H99.72Z"
     id="path20"
     inkscape:export-filename="UofSC_primary_CEC.png"
     inkscape:export-xdpi="300"
     inkscape:export-ydpi="300" />
  <path
     d="M106.14,72.08h3.5v2.18a3.93,3.93,0,0,1,3.77-2.45c2.46,0,3.71,1.57,3.71,4.59v7h-3.64V76.9c0-1.57-.54-2.32-1.7-2.32s-2,1-2,2.73v6.14h-3.66Z"
     id="path22"
     inkscape:export-filename="UofSC_primary_CEC.png"
     inkscape:export-xdpi="300"
     inkscape:export-ydpi="300" />
  <path
     d="M130.4,78.58h-7.89a2.45,2.45,0,0,0,2.61,2.53,2.63,2.63,0,0,0,2.48-1.6l2.68,1.23a5.54,5.54,0,0,1-5.2,3c-3.75,0-6-2.16-6-5.84s2.23-6.07,5.78-6.07,5.57,2.07,5.57,5.68Zm-3.53-2.13c0-1.62-.75-2.48-2.11-2.48s-2.21,1-2.25,2.57h4.36Z"
     id="path24"
     inkscape:export-filename="UofSC_primary_CEC.png"
     inkscape:export-xdpi="300"
     inkscape:export-ydpi="300" />
  <path
     d="M143.17,78.58h-7.89a2.45,2.45,0,0,0,2.62,2.53,2.63,2.63,0,0,0,2.47-1.6l2.69,1.23a5.56,5.56,0,0,1-5.21,3c-3.75,0-6-2.16-6-5.84s2.23-6.07,5.77-6.07,5.57,2.07,5.57,5.68Zm-3.52-2.13c0-1.62-.75-2.48-2.12-2.48s-2.2,1-2.25,2.57h4.37Z"
     id="path26"
     inkscape:export-filename="UofSC_primary_CEC.png"
     inkscape:export-xdpi="300"
     inkscape:export-ydpi="300" />
  <path
     d="M152.58,71.81h.23v3.48a4.86,4.86,0,0,0-.68,0,3.25,3.25,0,0,0-2.21.69,3.75,3.75,0,0,0-.91,2.86v4.64h-3.66V72.08h3.44V75C149.38,73,150.63,71.81,152.58,71.81Z"
     id="path28"
     inkscape:export-filename="UofSC_primary_CEC.png"
     inkscape:export-xdpi="300"
     inkscape:export-ydpi="300" />
  <path
     d="M154.34,67.13h3.79v3.32h-3.79Zm.07,5h3.66V83.45h-3.66Z"
     id="path30"
     inkscape:export-filename="UofSC_primary_CEC.png"
     inkscape:export-xdpi="300"
     inkscape:export-ydpi="300" />
  <path
     d="M160.83,72.08h3.5v2.18a3.91,3.91,0,0,1,3.77-2.45c2.46,0,3.71,1.57,3.71,4.59v7h-3.64V76.9c0-1.57-.55-2.32-1.7-2.32s-2,1-2,2.73v6.14h-3.66Z"
     id="path32"
     inkscape:export-filename="UofSC_primary_CEC.png"
     inkscape:export-xdpi="300"
     inkscape:export-ydpi="300" />
  <path
     d="M184.66,72.49a2.42,2.42,0,0,0-1.47.41,3.34,3.34,0,0,1,1.31,2.71c0,2.31-2,3.86-5.2,3.86a8,8,0,0,1-2.34-.32.68.68,0,0,0-.32.59c0,.57.48.93,1.54.93h3.19c2.77,0,4.2,1.16,4.2,3.32,0,2.59-2.27,4.16-6.54,4.16-3.8,0-5.6-1.11-5.6-2.73,0-.9.66-1.63,2-2a2.2,2.2,0,0,1-1.57-2.14,2.73,2.73,0,0,1,2.05-2.59,3.43,3.43,0,0,1-1.75-3c0-2.3,2-3.8,5.18-3.8a7.83,7.83,0,0,1,2.64.41c.38-1.27,1.5-2.07,3.29-2.07a3.54,3.54,0,0,1,.46,0v2.44A5.43,5.43,0,0,0,184.66,72.49ZM177.41,83.7c-.29,0-.57,0-.82,0a1.43,1.43,0,0,0-.45,1.07c0,1,1.16,1.43,3,1.43,2.35,0,3.35-.52,3.35-1.34s-.5-1.09-1.55-1.09Zm3.66-8.09a1.77,1.77,0,1,0-3.52,0,1.77,1.77,0,1,0,3.52,0Z"
     id="path34"
     inkscape:export-filename="UofSC_primary_CEC.png"
     inkscape:export-xdpi="300"
     inkscape:export-ydpi="300" />
  <path
     d="M58.55,103.09a2.85,2.85,0,0,1,1.16-2.46,8,8,0,0,1,3.57-1.11L66,99.13v-.38c0-1.3-.55-1.87-1.68-1.87a1.64,1.64,0,0,0-1.82,1.68H58.91c.19-2.52,2.23-4,5.46-4,3.66,0,5.3,1.43,5.3,4.71V103a12.68,12.68,0,0,0,.31,3.16H66.44a10.07,10.07,0,0,1-.18-1.8,4,4,0,0,1-3.8,2.07C60.12,106.45,58.55,105.11,58.55,103.09Zm7.59-1.25v-.91l-2,.32c-1.34.25-2,.72-2,1.56s.64,1.32,1.59,1.32A2.19,2.19,0,0,0,66.14,101.84Z"
     id="path36"
     inkscape:export-filename="UofSC_primary_CEC.png"
     inkscape:export-xdpi="300"
     inkscape:export-ydpi="300" />
  <path
     d="M72.31,94.81h3.5V97a3.93,3.93,0,0,1,3.77-2.45c2.46,0,3.71,1.57,3.71,4.59v7.05H79.65V99.63c0-1.57-.54-2.32-1.7-2.32s-2,1-2,2.73v6.14H72.31Z"
     id="path38"
     inkscape:export-filename="UofSC_primary_CEC.png"
     inkscape:export-xdpi="300"
     inkscape:export-ydpi="300" />
  <path
     d="M85.3,100.54c0-3.61,1.91-6,4.75-6a3.28,3.28,0,0,1,3.2,1.8V89.7h3.64v16.48H93.43v-2a3.74,3.74,0,0,1-3.59,2.23C87.12,106.45,85.3,104.09,85.3,100.54Zm8,.5v-1c0-1.93-.77-3-2.07-3s-2.18,1.23-2.18,3.41.84,3.46,2.22,3.46S93.3,102.81,93.3,101Z"
     id="path40"
     inkscape:export-filename="UofSC_primary_CEC.png"
     inkscape:export-xdpi="300"
     inkscape:export-ydpi="300" />
  <path
     d="M102.66,98.13c0-5.09,3-8.48,7.91-8.48,4.12,0,6.71,2.28,7.14,5.8l-3.89.68c-.22-2.14-1.41-3.39-3.34-3.39-2.45,0-3.89,2.07-3.89,5.37s1.46,5.34,4,5.34c1.8,0,3-1.23,3.32-3.32l3.89.84c-.77,3.41-3.27,5.59-7.27,5.59C105.41,106.56,102.66,103.22,102.66,98.13Z"
     id="path42"
     inkscape:export-filename="UofSC_primary_CEC.png"
     inkscape:export-xdpi="300"
     inkscape:export-ydpi="300" />
  <path
     d="M119.07,100.47c0-3.91,2.54-5.93,5.88-5.93s5.91,2,5.91,5.93-2.54,6-5.91,6S119.07,104.38,119.07,100.47Zm8.16,0c0-2.34-.84-3.41-2.28-3.41s-2.25,1.07-2.25,3.41.84,3.46,2.25,3.46S127.23,102.79,127.23,100.47Z"
     id="path44"
     inkscape:export-filename="UofSC_primary_CEC.png"
     inkscape:export-xdpi="300"
     inkscape:export-ydpi="300" />
  <path
     d="M136.43,94.81v2a3.53,3.53,0,0,1,3.5-2.32,3.12,3.12,0,0,1,3.22,2.34,3.84,3.84,0,0,1,3.64-2.34c2.2,0,3.5,1.55,3.5,4.21v7.43h-3.64V99.52c0-1.53-.47-2.21-1.52-2.21s-1.7.82-1.7,2.34v6.53h-3.64V99.49c0-1.47-.5-2.18-1.5-2.18s-1.71.84-1.71,2.37v6.5h-3.66V94.81Z"
     id="path46"
     inkscape:export-filename="UofSC_primary_CEC.png"
     inkscape:export-xdpi="300"
     inkscape:export-ydpi="300" />
  <path
     d="M153,94.81h3.5v1.82A3.82,3.82,0,0,1,160,94.54c2.75,0,4.55,2.32,4.55,5.93s-1.87,6-4.68,6a3.8,3.8,0,0,1-3.25-1.7v5.86H153Zm7.84,5.66c0-2.18-.77-3.41-2.16-3.41s-2.11,1.09-2.11,3.16v.64c0,1.86.81,3.07,2.13,3.07S160.83,102.61,160.83,100.47Z"
     id="path48"
     inkscape:export-filename="UofSC_primary_CEC.png"
     inkscape:export-xdpi="300"
     inkscape:export-ydpi="300" />
  <path
     d="M166.61,102.18V94.81h3.64v6.73c0,1.41.56,2.14,1.63,2.14s1.91-.93,1.91-2.37v-6.5h3.66v11.37H174v-2.07a3.65,3.65,0,0,1-3.54,2.34C167.75,106.45,166.61,104.84,166.61,102.18Z"
     id="path50"
     inkscape:export-filename="UofSC_primary_CEC.png"
     inkscape:export-xdpi="300"
     inkscape:export-ydpi="300" />
  <path
     d="M178.93,94.81h2V92.09l3.64-1.41v4.13h2.7v2.43h-2.7v4.41a1.51,1.51,0,0,0,1.66,1.73,4.61,4.61,0,0,0,1-.11v2.88a10.27,10.27,0,0,1-2.06.23c-3,0-4.28-1.36-4.28-3.86V97.24h-2Z"
     id="path52"
     inkscape:export-filename="UofSC_primary_CEC.png"
     inkscape:export-xdpi="300"
     inkscape:export-ydpi="300" />
  <path
     d="M189.22,89.86H193v3.32h-3.79Zm.07,5H193v11.37h-3.66Z"
     id="path54"
     inkscape:export-filename="UofSC_primary_CEC.png"
     inkscape:export-xdpi="300"
     inkscape:export-ydpi="300" />
  <path
     d="M195.71,94.81h3.5V97A3.91,3.91,0,0,1,203,94.54c2.46,0,3.71,1.57,3.71,4.59v7.05h-3.64V99.63c0-1.57-.55-2.32-1.71-2.32s-2,1-2,2.73v6.14h-3.66Z"
     id="path56"
     inkscape:export-filename="UofSC_primary_CEC.png"
     inkscape:export-xdpi="300"
     inkscape:export-ydpi="300" />
  <path
     d="M219.54,95.22a2.47,2.47,0,0,0-1.48.41,3.32,3.32,0,0,1,1.32,2.71c0,2.31-2,3.86-5.2,3.86a8,8,0,0,1-2.34-.32.68.68,0,0,0-.32.59c0,.57.48.93,1.54.93h3.19c2.77,0,4.2,1.16,4.2,3.32,0,2.59-2.27,4.16-6.55,4.16-3.79,0-5.59-1.11-5.59-2.73,0-.9.66-1.63,2-2A2.2,2.2,0,0,1,208.7,104a2.73,2.73,0,0,1,2.05-2.59,3.43,3.43,0,0,1-1.75-3c0-2.3,2-3.8,5.18-3.8a7.77,7.77,0,0,1,2.63.41c.39-1.27,1.5-2.07,3.3-2.07a3.31,3.31,0,0,1,.45,0v2.44A5.24,5.24,0,0,0,219.54,95.22Zm-7.25,11.21c-.29,0-.57,0-.82-.05a1.39,1.39,0,0,0-.45,1.07c0,1,1.16,1.43,3,1.43,2.34,0,3.35-.52,3.35-1.34s-.51-1.09-1.55-1.09ZM216,98.34a1.77,1.77,0,1,0-3.52,0,1.77,1.77,0,1,0,3.52,0Z"
     id="path58"
     inkscape:export-filename="UofSC_primary_CEC.png"
     inkscape:export-xdpi="300"
     inkscape:export-ydpi="300" />
</svg>
